<?xml version="1.0" encoding="utf-8"?>
<!-- Generator: Adobe Illustrator 15.1.0, SVG Export Plug-In . SVG Version: 6.00 Build 0)  -->
<!DOCTYPE svg PUBLIC "-//W3C//DTD SVG 1.1//EN" "http://www.w3.org/Graphics/SVG/1.1/DTD/svg11.dtd">
<svg version="1.1" id="Layer_1" xmlns="http://www.w3.org/2000/svg" xmlns:xlink="http://www.w3.org/1999/xlink" x="0px" y="0px"
	 width="50.011px" height="48.418px" viewBox="0 0 50.011 48.418" enable-background="new 0 0 50.011 48.418" xml:space="preserve">
<g>
	<path fill="#DFF2FC" d="M48.875,14.437l-3.764-0.717c-0.076-0.35-0.167-0.694-0.272-1.031l2.896-2.5
		c0.482-0.416,0.617-1.207,0.298-1.757l-0.386-0.669c-0.317-0.551-1.068-0.83-1.67-0.621l-3.627,1.264
		c-0.239-0.26-0.486-0.509-0.747-0.746l1.265-3.627c0.208-0.601-0.07-1.353-0.621-1.671L41.58,1.977
		c-0.553-0.317-1.342-0.184-1.759,0.298l-2.498,2.897c-0.428-0.136-0.866-0.245-1.313-0.33l-0.795-3.71
		C35.081,0.509,34.452,0,33.816,0c-0.637,0-1.266,0.509-1.398,1.131l-0.797,3.71c-0.541,0.104-1.065,0.251-1.578,0.428l-2.546-2.82
		c-0.428-0.472-1.229-0.598-1.78-0.28c-0.551,0.318-0.841,1.074-0.646,1.679l1.168,3.618c-0.412,0.357-0.797,0.743-1.154,1.154
		l-3.617-1.168c-0.606-0.196-1.362,0.095-1.68,0.646c-0.318,0.551-0.192,1.351,0.28,1.777l2.82,2.547
		c-0.176,0.512-0.324,1.037-0.428,1.579l-3.71,0.795c-0.623,0.134-1.131,0.764-1.131,1.399c0,0.636,0.509,1.266,1.131,1.399
		l3.71,0.794c0.104,0.542,0.252,1.067,0.428,1.579l-2.819,2.547c-0.472,0.427-0.598,1.228-0.28,1.778
		c0.318,0.55,1.073,0.841,1.679,0.646l3.618-1.169c0.356,0.412,0.742,0.797,1.154,1.153l-1.169,3.617
		c-0.195,0.606,0.096,1.362,0.646,1.681c0.551,0.317,1.352,0.192,1.777-0.28l2.549-2.819c0.422,0.146,0.854,0.273,1.296,0.369
		l0.719,3.764c0.118,0.625,0.737,1.136,1.372,1.136h0.772c0.635,0,1.254-0.511,1.373-1.136l0.717-3.764
		c0.35-0.075,0.694-0.165,1.031-0.272l2.498,2.897c0.417,0.481,1.206,0.616,1.759,0.298l0.668-0.387
		c0.551-0.317,0.83-1.068,0.621-1.67l-1.265-3.627c0.261-0.237,0.51-0.486,0.747-0.746l3.627,1.265
		c0.602,0.208,1.353-0.071,1.67-0.622l0.386-0.668c0.319-0.551,0.186-1.342-0.298-1.757l-2.896-2.5
		c0.107-0.336,0.196-0.681,0.272-1.031l3.764-0.717c0.624-0.119,1.136-0.737,1.136-1.373v-0.773
		C50.011,15.174,49.5,14.555,48.875,14.437z M33.816,21.98c-3.195,0-5.784-2.589-5.784-5.784s2.589-5.784,5.784-5.784
		c3.194,0,5.784,2.589,5.784,5.784S37.01,21.98,33.816,21.98z"/>
	<path fill="#DFF2FC" d="M26.267,34.134c0.595-0.228,0.989-0.927,0.879-1.554l-0.055-0.304c-0.113-0.626-0.725-1.145-1.361-1.151
		l-3.064-0.035c-0.116-0.283-0.242-0.561-0.382-0.827l1.931-2.377c0.402-0.495,0.395-1.297-0.015-1.784l-0.199-0.235
		c-0.411-0.487-1.2-0.63-1.754-0.317l-2.67,1.501c-0.241-0.187-0.489-0.36-0.746-0.524l0.484-3.025
		c0.101-0.628-0.307-1.32-0.905-1.537l-0.29-0.105c-0.599-0.217-1.354,0.055-1.678,0.603l-1.551,2.617
		c-0.389-0.053-0.783-0.081-1.181-0.086l-1.154-2.825c-0.24-0.589-0.874-0.993-1.406-0.898c-0.533,0.095-0.986,0.693-1.008,1.329
		l-0.105,3.049c-0.441,0.17-0.862,0.373-1.267,0.6l-2.412-1.869c-0.503-0.39-1.252-0.424-1.667-0.075
		c-0.414,0.348-0.508,1.093-0.208,1.656l1.437,2.697c-0.293,0.364-0.559,0.748-0.798,1.147l-3.026-0.413
		c-0.629-0.086-1.296,0.26-1.48,0.769s0.107,1.202,0.647,1.539l2.596,1.619c-0.07,0.457-0.112,0.92-0.117,1.391l-2.83,1.156
		c-0.589,0.24-0.993,0.872-0.898,1.405c0.096,0.532,0.693,0.985,1.329,1.008l3.064,0.105c0.168,0.437,0.373,0.85,0.598,1.251
		l-1.882,2.428c-0.389,0.503-0.424,1.252-0.075,1.666c0.349,0.415,1.093,0.508,1.655,0.208l2.723-1.449
		c0.358,0.286,0.734,0.548,1.128,0.781l-0.418,3.055c-0.086,0.631,0.259,1.298,0.768,1.48c0.509,0.186,1.201-0.106,1.537-0.646
		l1.638-2.624c0.364,0.055,0.733,0.096,1.107,0.109l1.101,2.88c0.227,0.595,0.925,0.988,1.551,0.877l0.304-0.054
		c0.626-0.112,1.145-0.725,1.152-1.36l0.035-3.082c0.278-0.115,0.549-0.239,0.813-0.377l2.393,1.944
		c0.494,0.399,1.295,0.394,1.783-0.017l0.236-0.198c0.486-0.411,0.629-1.2,0.318-1.755l-1.515-2.693
		c0.18-0.235,0.349-0.477,0.508-0.728l3.055,0.49c0.628,0.099,1.32-0.308,1.536-0.906l0.105-0.29
		c0.216-0.599-0.055-1.354-0.602-1.678l-2.644-1.567c0.04-0.297,0.063-0.595,0.076-0.896L26.267,34.134z M14.434,39.661
		c-2.673,0.479-5.226-1.302-5.704-3.975c-0.478-2.675,1.301-5.228,3.976-5.706c2.674-0.477,5.227,1.302,5.704,3.977
		C18.888,36.63,17.108,39.184,14.434,39.661z"/>
</g>
</svg>
