<?xml version="1.0" encoding="utf-8"?>
<!-- Generator: Adobe Illustrator 15.1.0, SVG Export Plug-In . SVG Version: 6.00 Build 0)  -->
<!DOCTYPE svg PUBLIC "-//W3C//DTD SVG 1.1//EN" "http://www.w3.org/Graphics/SVG/1.1/DTD/svg11.dtd">
<svg version="1.1" id="Layer_1" xmlns="http://www.w3.org/2000/svg" xmlns:xlink="http://www.w3.org/1999/xlink" x="0px" y="0px"
	 width="271.931px" height="235.095px" viewBox="28.069 0 271.931 235.095" enable-background="new 28.069 0 271.931 235.095"
	 xml:space="preserve">
<g>
	<g>
		<g>
			<g>
				<g opacity="0.9">
					<g opacity="0.9">
						<path fill="#EBEAEE" d="M131.26,161.82c0.582,0.857,1.191,1.701,1.833,2.531c0.409-0.505,1.133-0.712,2.234-0.601
							c1.562,0.926,0.395-0.543-1.785-3.598c-2.177-3.056-5.172-7.938-7.26-13.601c-0.703,0.006-1.007,1.024-0.474,3.511
							C126.378,152.519,127.718,156.54,131.26,161.82z"/>
						<path fill="#DDDCE3" d="M172.745,195.122c0.921-0.144,1.832-0.304,2.726-0.479l1.396-0.279
							c0.443-0.096,0.764-0.188,1.146-0.282c-0.178-0.033-0.346-0.07-0.507-0.121l-0.517,0.16l-0.637,0.16l-1.23,0.305
							C174.326,194.779,173.531,194.958,172.745,195.122z"/>
						<path fill="#EBEAEE" d="M159.777,183.972c-4.045-1.039-7.268-2.096-10.205-3.209c-2.927-1.129-5.572-2.327-8.246-3.965
							c2.546,2.379,4.786,4.272,6.1,5.818c1.8,1.807,4.81,3.883,8.699,5.647c2.879,0.51,7,0.962,10.661,1.269
							c-1.905-0.475-1.894-0.449-4.565-0.585c1.336,0.087,3.334,0.142,4.987,0.104c1.653-0.032,2.964-0.133,2.964-0.129
							c-0.585-0.44-3.595-0.814-7.271-1.543c-3.684-0.701-8.007-1.861-11.355-3.012c2.074,0.549,4.596,1.067,7.199,1.394
							c2.605,0.331,5.285,0.47,7.673,0.45c-1.255-0.393-2.575-0.825-3.929-1.313c-1.781-0.371-3.613-0.831-5.173-1.259
							C158.137,183.769,158.957,183.882,159.777,183.972z"/>
						<path fill="#EBEAEE" d="M130.08,119.809l-0.328,1.649c0.415,2.096,0.868,4.438,1.456,6.765
							c0.162-1.824,0.391-3.666,0.702-5.521c-0.21-1.13-0.401-2.502-0.529-3.895c0.157-0.155,0.314-0.318,0.472-0.502
							c0.203,0.221,0.39,0.561,0.561,1.673l0.041-0.209c0.216-1.05,0.457-2.097,0.717-3.17l-0.652,0.883
							c0.25-3.245,1.179-6.498,0.512-7.401C132.154,110.746,130.864,115.65,130.08,119.809z"/>
						<path fill="#E9E7EC" d="M152.055,73.601c-0.809-0.38-1.311-1.039-1.237-2.208c-1.301,1.384-3.126,2.814-4.871,4.404
							c-1.744,1.58-3.398,3.319-4.352,5.021c-0.234-1.481-1.602-1.255-3.597,0.223c-1.983,1.475-4.518,4.252-6.829,7.707
							c-2.328,3.436-4.399,7.546-5.952,11.231c-1.571,3.733-2.725,7.059-3.625,8.696c-2,4.297-3.506,11.153-3.732,18.483
							c-0.296,7.334,0.794,15.033,2.113,21.074c0.64,1.089,1.093,1.438,1.638,2.087c0.553,0.646,1.182,1.603,2.384,3.791
							c-0.896-2.831-2.144-5.915-3.598-9.458l-0.833-2.04l0.833,2.04c1.08,2.576,2.123,5.098,3.648,8.043
							c-0.438-1.023-0.612-1.771-0.258-1.601c0.41,0.487,0.795,1.098,1.188,1.768c-1.643-5.27-2.303-10.431-2.137-14.308
							c0.164-3.891,1.07-6.469,2.472-6.912c-0.078-0.966-0.135-1.93-0.172-2.887c-0.189-5.879,0.503-9.764,1.167-12.051
							c0.692-2.295,1.408-3.02,2.041-2.716c0.413-3.461,1.112-7.021,2-10.295c0.869-3.228,1.932-5.98,3.005-8.16
							c3.738-6.961,8.49-12.011,13.723-15.967c1.202-1.881,2.491-3.653,3.644-5.227L152.055,73.601z"/>
						<path fill="#AEABC0" d="M191.211,97.813c-0.313-0.655-1.165-1.501-2.754-2.158c-1.57-0.639-3.934-1.052-6.745-0.498
							c-2.792,0.536-5.985,2.089-8.642,4.881c-1.33,1.385-2.506,3.072-3.426,4.988c-0.529,1.203-0.834,1.933-1.158,2.96
							c-0.311,0.977-0.57,2.002-0.754,3.069c-0.758,4.255-0.426,9.188,1.64,14.019c1.032,2.408,2.5,4.791,4.491,6.944
							c1.979,2.147,4.492,4.075,7.433,5.433c0.379,0.178,0.897,0.385,1.351,0.563l0.789,0.309l0.15,0.061l0.038,0.016l0.356,0.107
							l0.133,0.043l0.533,0.166c0.359,0.104,0.721,0.209,1.088,0.3c1.467,0.372,2.996,0.622,4.554,0.731
							c3.116,0.229,6.342-0.119,9.396-1.027c6.137-1.797,11.454-5.809,15-10.84c1.87-2.572,3.315-5.396,4.321-8.318
							c0.249-0.727,0.472-1.441,0.706-2.327l0.093-0.349l0.148-0.62l0.229-1.038c0.288-1.39,0.497-2.797,0.628-4.214
							c0.526-5.674-0.216-11.484-2.25-16.925c-2.029-5.433-5.371-10.55-10.043-14.636c-2.332-2.036-4.992-3.801-7.893-5.152
							c-0.723-0.342-1.463-0.651-2.212-0.939c-0.606-0.245-1.935-0.674-2.169-0.744l-1.197-0.343l-1.083-0.275
							c-0.728-0.17-1.461-0.322-2.2-0.453c-5.926-1.055-12.229-0.604-17.986,1.278c-5.771,1.872-10.99,5.104-15.25,9.21
							c-4.264,4.109-7.592,9.089-9.82,14.459c-0.559,1.342-1.051,2.708-1.476,4.09c-0.468,1.533-0.768,2.751-1.063,4.101
							c-0.567,2.655-0.953,5.369-1.117,8.11c0.57-1.551,1.178-2.358,1.698-2.443c0.524-0.085,0.963,0.55,1.363,1.895
							c0.409,1.344,0.787,3.401,1.37,6.153c0.592,2.748,1.395,6.201,2.855,10.237c0.748,2.063,1.623,4.521,2.734,7.051
							c1.105,2.529,2.454,5.126,3.965,7.468c2.982,4.718,6.734,8.249,8.486,9.122c4.418,2.979,8.541,4.532,12.28,5.409
							c0.459,0.106,1.054,0.244,1.456,0.313l1.284,0.209c0.87,0.133,1.728,0.235,2.575,0.312c1.697,0.153,3.361,0.209,5.046,0.177
							c3.366-0.074,6.825-0.451,10.745-1.394c3.906-0.953,8.312-2.466,13.197-5.277c-1.86,0.617-3.061,0.578-4.283,0.611
							c-1.23,0.022-2.483,0.122-4.603,0.692c-5.847,0.974-12.55,1.002-19.567-0.742c-7.037-1.646-14.342-5.612-20.315-12.223
							c-0.854-0.937-1.708-2.302-2.317-3.667c-0.613-1.366-0.988-2.724-1.066-3.614c-0.076-0.896,0.115-1.314,0.639-0.893
							c0.533,0.417,1.365,1.693,2.956,3.991c-3.433-6.089-4.991-11.813-5.651-17.187c-0.6-5.376-0.28-10.548,1.35-15.601
							c1.164-3.585,2.758-6.171,4.199-8.017c1.457-1.847,2.781-2.971,3.811-3.674c2.092-1.378,2.954-1.185,3.324-0.674
							c0.378,0.533,0.375,1.47,0.808,2.06c0.433,0.615,1.247,0.809,3.13,0.355c1.36-0.053,3.01-0.383,4.898-0.594
							c1.646-0.711,3.398-1.164,5.218-1.325c0.91-0.079,1.836-0.09,2.771-0.022c0.467,0.033,0.945,0.085,1.404,0.155l0.23,0.043
							l0.121,0.016c0.08,0.01,0.158,0.016,0.273,0.043l0.644,0.136c3.413,0.796,6.755,3.094,9.146,6.428
							c2.402,3.319,3.846,7.588,3.912,12.051c0.018,1.119-0.045,2.238-0.203,3.379c-0.137,1.044-0.398,2.165-0.76,3.212
							c-0.725,2.117-1.895,4.134-3.49,5.828c-1.49,1.615-4.051,2.836-6.646,3.144c-2.621,0.351-5.117-0.142-7.193-0.647
							c-1.73-0.519-3.566-1.604-5.021-3.107c-1.476-1.502-2.644-3.424-3.353-5.512c-1.421-4.173-1.104-9.024,1.048-12.426
							c1.049-1.711,2.475-3.055,3.955-3.954c1.482-0.908,3.004-1.373,4.266-1.608c1.269-0.227,2.277-0.253,2.893-0.333
							C191.271,98.272,191.4,98.09,191.211,97.813z"/>
						<path fill="#B9B7C8" d="M249.395,108.676c0.092,3.354-0.097,6.878-0.607,10.483c-0.5,3.6-1.422,7.555-2.793,11.379
							c0.662-1.388,1.277-2.795,1.83-4.22c0.289-0.722,0.535-1.405,0.809-2.172l0.704-2.101l0.646-2.152l0.572-2.104
							c0.354-1.41,0.688-2.83,0.967-4.26c1.141-5.715,1.639-11.574,1.49-17.452c-0.744-3.11-1.695-6.315-2.762-9.072
							C251.787,95.831,251.074,103.571,249.395,108.676z"/>
						<path fill="#B9B7C8" d="M169.4,106.009c-0.351-0.624-0.737-0.765-1.197-0.516c-0.227,0.125-0.471,0.345-0.719,0.65
							c-0.252,0.301-0.51,0.714-0.746,1.079c-1.082,2.001-2.041,4.959-2.965,7.759c0.594,6.395,2.32,11.418,4.103,15.625
							c1.821,4.207,3.758,7.641,5.733,10.854c0.396,0.002,1.504,0.947,2.838,1.904c1.328,0.965,2.904,1.913,3.899,2.271
							c-0.38,0.112,0.363,0.893,0.746,1.448c0.384,0.537,0.341,0.963-1.79,0.186c2.126,0.826,4.219,1.708,6.348,2.32
							c2.092,0.609,4.064,0.936,5.533,0.681c1.777,0.328,2.326,0.487,2.193,0.687c-0.132,0.186-0.943,0.361-1.848,0.498
							c-1.789,0.27-3.989,0.36-1.443,1.184c6.87,0.029,13.12-1.434,18.328-3.527c5.227-2.081,9.438-4.728,12.658-6.926
							c3.224-2.202,5.494-3.947,6.836-4.395c1.312-0.467,1.753,0.406,0.585,2.968c-0.812,2-2.544,4.614-4.651,7.135
							c-2.091,2.54-4.553,4.967-6.406,7.06c-1.813,2.102-6.816,4.862-13.219,6.104c-3.184,0.635-6.67,0.892-10.096,0.724
							c-3.43-0.158-6.782-0.732-9.764-1.521c0.787,0.471,2.463,1.071,4.438,1.544c1.971,0.482,4.232,0.813,6.098,1.005
							c1.861,0.2,3.322,0.291,3.69,0.504c0.364,0.194-0.354,0.588-2.929,0.979c-2.504,0.244-5.11,0.311-7.7,0.179
							c-1.295-0.065-2.589-0.173-3.858-0.332c-0.638-0.071-1.268-0.167-1.894-0.261l-0.933-0.153l-0.463-0.08l-0.232-0.04
							l-0.027-0.005l-0.008-0.002l-0.174-0.049l-0.01-0.003l-0.045-0.008l-0.088-0.015l-0.693-0.114l-1.07-0.254
							c-0.708-0.177-1.273-0.313-1.898-0.492c-1.221-0.334-2.392-0.715-3.508-1.108c-2.232-0.789-4.232-1.666-5.945-2.476
							c3.146,2.066,6.676,3.801,10.424,5.045c0.47,0.158,1.066,0.34,1.598,0.502l1.232,0.334c0.899,0.233,1.811,0.442,2.728,0.633
							c1.835,0.374,3.702,0.646,5.579,0.816c7.521,0.702,15.143-0.397,21.723-2.744c6.612-2.323,12.189-5.789,16.555-9.32
							c4.384-3.538,7.6-7.124,9.955-9.902c3.693-4.24,6.723-8.934,9.092-13.902c1.373-3.823,2.294-7.778,2.794-11.377
							c0.512-3.606,0.698-7.131,0.608-10.484c1.68-5.104,2.393-12.845,0.854-21.668c-1.281-3.391-2.741-6.149-3.796-7.434
							c-1.157-1.809-1.386-1.279-1.091,0.588c0.287,1.873,1.002,5.127,1.506,8.89c0.523,3.757,0.781,8.022,0.64,11.792
							c-0.125,3.771-0.655,7.028-1.248,8.828c0.349-7.838-0.784-14.002-2.125-18.481c-1.368-4.493-2.958-7.352-4.21-8.914
							c-1.275-1.559-2.23-1.836-2.805-1.128c-0.58,0.71-0.809,2.413-0.865,4.91c0.025,3.421-0.018,6.911-0.288,10.913
							c-0.285,3.995-0.787,8.519-2.063,13.825c-0.535,2.827-1.264,6.188-2.279,9.6c-1.012,3.405-2.35,6.859-3.792,10.033
							c0.487-1.059,1.362-3.207,1.832-4.956c0.487-1.744,0.664-3.043,0.241-2.325c-1.375,2.887-2.92,5.135-4.516,7.069
							c-1.604,1.932-3.262,3.56-5.06,5.134c-1.808,1.566-3.75,3.096-6.077,4.684c-2.329,1.582-5.042,3.244-8.545,4.778
							c0.165-0.353-0.127-0.468-0.008-0.729c0.115-0.266,0.656-0.646,2.347-1.7c-1.687,1.063-2.834,1.462-3.626,1.597
							c-0.796,0.133-1.254,0.006-1.703-0.127c-0.447-0.13-0.89-0.268-1.66-0.222c-0.773,0.039-1.861,0.282-3.707,0.707
							c-1.853-0.571-2.457-1.693-3.732-2.614c-0.635-0.473-1.424-0.906-2.586-1.322c-0.582-0.217-1.256-0.416-2.055-0.654
							l-2.658-0.775c-2.164-0.604-3.652-1.514-4.905-2.499c-2.646-1.327-5.269-3.49-7.414-6.512
							c-2.144-3.009-3.786-6.882-4.374-11.313c-0.422-3.188-0.375-6.383,0.107-9.485c0.433-2.94,1.314-5.563,2.646-7.963
							C170.811,103.442,169.961,105.769,169.4,106.009z"/>
						<path fill="#B4B1C4" d="M176.52,93.442c-1.885,0.453-2.699,0.26-3.131-0.355c-0.433-0.59-0.43-1.525-0.808-2.06
							c-0.37-0.511-1.231-0.704-3.324,0.674c-1.028,0.704-2.354,1.828-3.812,3.674c-1.441,1.846-3.033,4.432-4.197,8.017
							c-1.631,5.053-1.949,10.225-1.351,15.6c0.659,5.375,2.218,11.098,5.651,17.188c-1.59-2.297-2.422-3.574-2.957-3.991
							c-0.523-0.423-0.715-0.003-0.639,0.892c0.08,0.893,0.453,2.25,1.066,3.615c0.611,1.365,1.463,2.73,2.318,3.667
							c5.975,6.609,13.277,10.577,20.314,12.222c7.02,1.744,13.723,1.717,19.568,0.742c2.118-0.57,3.371-0.67,4.602-0.691
							c1.225-0.033,2.424,0.006,4.285-0.611c-4.888,2.813-9.291,4.324-13.197,5.277c-3.922,0.941-7.381,1.318-10.746,1.394
							c-1.686,0.032-3.35-0.022-5.047-0.177c-0.848-0.075-1.704-0.178-2.574-0.311l-1.284-0.209
							c-0.403-0.07-0.997-0.209-1.456-0.314c-3.74-0.877-7.863-2.432-12.279-5.409c-1.754-0.873-5.506-4.403-8.486-9.122
							c-1.513-2.342-2.861-4.938-3.966-7.468c-1.11-2.529-1.985-4.988-2.735-7.051c-1.461-4.036-2.263-7.489-2.854-10.237
							c-0.583-2.752-0.961-4.811-1.37-6.153c-0.4-1.345-0.839-1.979-1.363-1.895c-0.52,0.085-1.127,0.893-1.698,2.443
							c-0.48,7.778,0.715,15.765,3.701,23.269c2.982,7.488,7.772,14.572,14.45,20.154c1.225,1.004,2.527,1.962,3.908,2.865
							c1.713,0.809,3.711,1.686,5.944,2.475c1.116,0.395,2.287,0.775,3.507,1.109c0.625,0.179,1.191,0.314,1.899,0.492l1.069,0.252
							l0.695,0.115l0.088,0.016l0.043,0.008l0.012,0.002l0.173,0.049l0.008,0.002l0.028,0.005l0.23,0.04l0.463,0.08l0.934,0.154
							c0.626,0.093,1.256,0.188,1.894,0.26c1.271,0.158,2.563,0.266,3.858,0.332c2.59,0.132,5.195,0.064,7.701-0.18
							c2.574-0.392,3.291-0.785,2.928-0.979c-0.368-0.213-1.829-0.304-3.691-0.504c-1.863-0.191-4.125-0.521-6.097-1.005
							c-1.974-0.472-3.649-1.073-4.438-1.544c2.981,0.787,6.336,1.361,9.765,1.521c3.426,0.167,6.913-0.089,10.096-0.724
							c6.401-1.242,11.404-4.004,13.218-6.105c1.854-2.092,4.316-4.519,6.407-7.059c2.108-2.521,3.841-5.135,4.651-7.135
							c1.168-2.562,0.727-3.436-0.586-2.967c-1.34,0.445-3.611,2.19-6.834,4.394c-3.221,2.198-7.435,4.845-12.659,6.926
							c-5.208,2.095-11.458,3.558-18.328,3.527c-2.546-0.822-0.347-0.914,1.444-1.185c0.902-0.136,1.715-0.313,1.847-0.496
							c0.133-0.199-0.416-0.358-2.192-0.688c-1.47,0.255-3.443-0.07-5.535-0.682c-2.129-0.611-4.221-1.493-6.347-2.319
							c2.132,0.776,2.173,0.353,1.79-0.185c-0.383-0.558-1.126-1.338-0.746-1.449c-0.996-0.356-2.57-1.307-3.9-2.271
							c-1.334-0.958-2.44-1.901-2.836-1.903c-1.978-3.213-3.912-6.646-5.734-10.854c-1.782-4.207-3.508-9.231-4.102-15.625
							c0.924-2.8,1.883-5.758,2.963-7.759c0.236-0.364,0.494-0.777,0.746-1.079c0.248-0.306,0.494-0.525,0.72-0.65
							c0.46-0.249,0.847-0.107,1.198,0.515c0.559-0.239,1.41-2.565,2.978-4.809c2.087-3.753,5.278-6.735,9.038-8.352
							C179.529,93.06,177.879,93.39,176.52,93.442z"/>
						<path fill="#BDBBCB" d="M186.318,138.971l2.658,0.774c0.799,0.239,1.473,0.438,2.055,0.655
							c1.162,0.416,1.951,0.851,2.586,1.322c1.275,0.921,1.881,2.043,3.732,2.614c1.846-0.426,2.934-0.668,3.707-0.707
							c0.771-0.047,1.213,0.092,1.66,0.222c0.449,0.133,0.907,0.26,1.703,0.127c0.792-0.135,1.939-0.532,3.626-1.597
							c-1.69,1.054-2.231,1.436-2.347,1.701c-0.119,0.261,0.173,0.377,0.008,0.729c3.503-1.534,6.216-3.195,8.545-4.777
							c2.327-1.589,4.271-3.117,6.077-4.685c1.798-1.575,3.456-3.202,5.06-5.134c1.596-1.936,3.141-4.185,4.516-7.069
							c0.423-0.718,0.246,0.581-0.241,2.325c-0.47,1.749-1.345,3.898-1.832,4.956c1.442-3.175,2.78-6.628,3.792-10.033
							c1.018-3.41,1.744-6.771,2.279-9.601c1.276-5.307,1.778-9.831,2.063-13.824c0.271-4.003,0.313-7.491,0.288-10.913
							c0.059-2.497,0.285-4.199,0.865-4.91c0.574-0.708,1.527-0.432,2.805,1.128c1.252,1.562,2.842,4.42,4.21,8.914
							c1.341,4.479,2.474,10.644,2.125,18.48c0.593-1.799,1.123-5.057,1.248-8.828c0.144-3.769-0.114-8.033-0.64-11.792
							c-0.504-3.762-1.219-7.016-1.506-8.889c-0.295-1.867-0.066-2.396,1.091-0.588c1.055,1.284,2.515,4.042,3.796,7.433
							c-0.92-5.351-2.657-11.077-5.323-16.723c-2.657-5.644-6.241-11.205-10.662-16.204c-4.409-5.004-9.661-9.434-15.379-12.907
							c-5.706-3.487-11.866-5.993-17.841-7.528c-0.232,0.137-0.37,0.292-0.395,0.464c-0.012,0.086,0.006,0.177,0.055,0.272
							c0.023,0.049,0.056,0.098,0.096,0.147l0.064,0.077l0.02,0.02l0.005,0.005l0.003,0.002l0,0c0.08,0.024-0.181-0.052,0.182,0.054
							v0.001l0.009,0.009l0.03,0.038c0.175,0.203,0.459,0.422,0.871,0.659c0.166,0.104,0.521,0.27,0.908,0.442l1.268,0.546
							c3.232,1.485,5.65,2.984,7.498,4.336c1.848,1.354,3.135,2.553,4.066,3.589c1.856,2.08,2.36,3.457,2.701,4.716
							c0.333,1.259,0.491,2.422,1.344,4.193c0.819,1.792,2.381,4.165,4.873,8.204c1,1.611,3.021,4.602,4.592,7.557
							c1.602,2.938,2.793,5.792,3.043,6.684c0.813,4.262-0.437,4.39-1.521,4.563c-1.146,0.163-2.146,0.382-1.84,4.292
							c-0.365-0.196,0.755,2.651,1.512,5.832c0.799,3.169,1.189,6.636,0.811,7.183c-0.521,2.188-1.426,2.681-2.15,3.763
							c-0.764,1.076-1.266,2.716-1.827,7.018c-0.444,2.917-1.144,5.611-1.933,7.854c-0.803,2.305-1.736,4.164-2.739,5.828
							c-2.017,3.291-4.235,5.516-6.353,7.088c-2.121,1.573-4.153,2.508-6.084,3.121c-1.935,0.608-3.775,0.897-5.619,1.021
							c-3.252,2.506-6.85,4.188-10.875,4.858c-2.027,0.322-4.104,0.404-6.399,0.107c-0.265-0.053-0.289-0.043-0.373-0.046
							c-0.089-0.009-0.13,0.012-0.271-0.019c-0.244-0.035-0.49-0.074-0.734-0.123c-0.49-0.098-0.986-0.209-1.48-0.355
							c-0.992-0.284-1.989-0.674-2.984-1.173C182.666,137.458,184.154,138.366,186.318,138.971z"/>
						<path fill="#CFCDD9" d="M92.637,133.978c1.228,7.521,3.093,14.465,5.536,20.952c-2.372-7.724-3.271-14.524-3.518-20.396
							c-0.233-5.881,0.204-10.854,0.907-15.129c1.464-8.542,3.895-14.321,6.481-19.111c0.224-0.376,0.529-1.378,0.939-2.836
							l0.707-2.521c0.294-1.052,0.591-2.059,0.95-3.217c1.398-4.564,3.558-10.331,6.486-15.847
							c2.894-5.527,6.56-10.757,10.031-14.575c3.461-3.834,6.634-6.289,8.202-6.811c-0.373,1.862-6.046,8.218-11.093,17.209
							c5.904-7.873,11.736-12.447,16.683-15.476c4.997-3.004,9.218-4.486,13.153-5.511c3.947-1.001,7.645-1.544,11.91-2.018
							c4.268-0.438,9.126-0.851,15.414-0.669c6.294,0.201,12.12,1.638,17.003,3.751c1.204,0.521,2.433,1.103,3.456,1.683l0.905,0.48
							l0.71,0.448c0.468,0.3,0.982,0.629,1.443,0.952c1.884,1.308,3.492,2.711,4.83,4.131c2.688,2.83,4.297,5.683,5.088,8.018
							c0.783,2.356,0.764,4.205,0.146,5.37c-0.635,0.94,1.013,3.771,2.636,7.845c1.668,4.042,3.143,9.436,3.297,14.34
							c1.336,3.621,2.196,7.532,2.457,11.498c1.678-5.572,2.002-10.752,3.117-12.419c0.984-1.138,1.797-2.609,2.293-4.581
							c0.491-1.969,0.678-4.446,0.27-7.525c-0.415-3.071-1.424-6.765-3.547-10.917c-2.133-4.124-5.401-8.757-10.539-13.011
							c-1.651-1.405-2.502-2.392-2.861-3.194c-0.355-0.813-0.218-1.437,0.039-2.004c0.493-1.127,1.516-2.042-0.729-3.659
							c-2.162-1.601-4.312-2.994-6.492-4.192c-2.121-1.19-4.221-2.215-6.274-3.124c-4.112-1.813-8.067-3.146-11.955-4.153
							c-7.79-1.967-15.306-2.828-24.075-2.141c-3.491,0.058-10.831,1.425-19.125,5.322c-6.636,4.308-12.539,9.597-17.648,15.482
							c-5.115,5.892-9.443,12.379-13.079,19.204c-2.386,5.096-4.024,9.483-5.313,13.228l-0.9,2.691l-0.803,2.528l-1.291,4.152
							c-1.548,5.058-2.664,8.277-3.678,11.075c-0.998,2.803-1.875,5.191-2.447,8.762C91.832,121.63,91.512,126.419,92.637,133.978z"
							/>
						<path fill="#C8C5D3" d="M227.259,108.311c0.563-4.301,1.063-5.941,1.827-7.018c0.725-1.082,1.631-1.574,2.15-3.763
							c0.381-0.546-0.012-4.014-0.811-7.183c-0.757-3.181-1.877-6.028-1.512-5.832c-0.309-3.91,0.691-4.128,1.84-4.292
							c1.085-0.173,2.334-0.302,1.521-4.563c-0.25-0.892-1.441-3.746-3.043-6.684c-1.569-2.955-3.592-5.945-4.592-7.557
							c-2.492-4.039-4.054-6.412-4.873-8.204c-0.853-1.771-1.011-2.935-1.344-4.193c-0.341-1.26-0.845-2.636-2.701-4.716
							c-0.933-1.037-2.22-2.235-4.066-3.588c-1.848-1.353-4.267-2.852-7.498-4.337l-1.269-0.546
							c-0.388-0.173-0.741-0.339-0.907-0.442c-0.412-0.237-0.696-0.457-0.871-0.659l-0.03-0.038l-0.009-0.009v-0.001
							c-0.361-0.105-0.102-0.029-0.182-0.054h-0.001l-0.002-0.002l-0.005-0.005l-0.02-0.02l-0.064-0.077
							c-0.04-0.05-0.072-0.1-0.096-0.147c-0.049-0.096-0.065-0.187-0.055-0.272c0.023-0.173,0.162-0.327,0.395-0.464l-0.207-0.051
							c0.124-0.017,0.23-0.035,0.32-0.058l0.033-0.008l0.016-0.004c0.393,0.114,0.109,0.031,0.197,0.057l0.002-0.001l0.004-0.001
							l0.006-0.002l0.049-0.02c0.029-0.015,0.059-0.028,0.082-0.043c0.098-0.061,0.143-0.129,0.141-0.206
							c-0.002-0.039-0.014-0.08-0.037-0.123c-0.012-0.021-0.025-0.043-0.043-0.065l-0.026-0.034l-0.015-0.017l-0.004-0.004
							l-0.004-0.002c0.182,0.053-0.248-0.072-0.203-0.061l-0.002-0.001l-0.011-0.009c-0.116-0.098-0.284-0.206-0.496-0.32
							c-0.845-0.458-2.403-1.016-4.233-1.504c-3.652-1.015-8.4-1.554-10.303-1.657c-4.753-0.339-8.82-0.246-12.453,0.01
							c-3.633,0.264-6.836,0.697-9.896,1.253c-6.105,1.153-11.728,2.644-18.733,5.781c-2.662,1.308-5.234,2.78-7.709,4.388
							c8.294-3.896,15.634-5.265,19.125-5.322c8.77-0.688,16.286,0.173,24.075,2.141c3.889,1.008,7.842,2.34,11.955,4.153
							c2.055,0.909,4.152,1.934,6.273,3.124c2.183,1.198,4.33,2.594,6.492,4.192c2.244,1.617,1.223,2.532,0.729,3.659
							c-0.257,0.568-0.396,1.192-0.039,2.004c0.36,0.803,1.21,1.789,2.862,3.194c5.137,4.255,8.404,8.888,10.537,13.011
							c2.125,4.152,3.133,7.846,3.547,10.917c0.41,3.08,0.224,5.558-0.27,7.525c-0.496,1.972-1.308,3.443-2.292,4.581
							c-1.114,1.667-1.438,6.847-3.116,12.419c0.113,1.681,0.112,3.369,0.017,5.051c-0.019,0.422-0.065,0.839-0.095,1.26
							l-0.066,0.627l-0.033,0.313l-0.018,0.157l-0.004,0.039c-0.043,0.179,0.058-0.24,0.047-0.195l-0.002,0.003v0.008l-0.002,0.013
							l-0.004,0.027l-0.02,0.107l-0.143,0.863l-0.043,0.283l-0.022,0.204l-0.022,0.206l-0.047,0.271l-0.102,0.553
							c-0.236,1.56-1.13,3.27-2.012,4.465c-0.883,1.203-1.709,1.932-1.707,1.933c-2.338,4.498-5.293,7.931-8.59,10.493
							c1.844-0.122,3.686-0.411,5.619-1.02c1.93-0.613,3.963-1.549,6.084-3.121c2.116-1.572,4.336-3.797,6.353-7.088
							c1.003-1.664,1.938-3.524,2.739-5.83C226.115,113.922,226.814,111.227,227.259,108.311z"/>
						<path fill="#D6D4DE" d="M109.665,176.54c2.801,3.386,6.506,7.16,9.772,10.067c4.868,4.181,7.112,5.802,8.517,7.103
							c1.443,1.254,2.146,2.088,4.752,3.658c-0.69-0.518-1.369-1.043-2.038-1.582c1.13,0.742,2.308,1.457,3.487,2.141
							c-4.657-3.98-6.759-7.309-5.581-8.148c-6.018-4.373-10.105-9.128-11.382-11.557c-2.214-4.195-3.563-8.035-4.711-12.021
							c-1.13-3.994-2.05-8.152-2.92-13.119c-0.843-4.965-1.647-10.75-1.946-17.981c-0.272-7.222-0.044-15.924,1.892-26.417
							c0.776-4.231,1.676-6.021,2.455-6.75c0.796-0.727,1.536-0.395,2.359-0.285c0.825,0.113,1.725,0,2.872-1.496
							c1.175-1.487,2.509-4.38,4.952-9.502c1.619-3.412,4.103-8.354,6.917-12.272c2.772-3.948,5.747-6.854,7.059-7.095
							c1.308,0.174,0.727,2.735,1.17,3.96c0.214,0.619,0.643,0.896,1.605,0.438c0.97-0.449,2.446-1.662,4.979-3.769
							c6.3-5.376,13.344-8.761,19.87-10.292c6.547-1.556,12.523-1.308,17.269-0.156c4.767,1.148,8.341,3.144,10.705,5.122
							c2.101,1.926,2.905,3.807,2.892,5.313c3.51,2,7.34,4.519,11.047,8.35c3.688,3.787,7.121,8.872,9.285,14.795
							c-0.154-4.904-1.629-10.298-3.297-14.34c-1.623-4.075-3.271-6.904-2.636-7.845c0.617-1.166,0.638-3.014-0.146-5.37
							c-0.791-2.335-2.399-5.188-5.088-8.018c-1.338-1.418-2.946-2.823-4.83-4.131c-0.461-0.323-0.977-0.652-1.443-0.952
							l-0.71-0.448l-0.905-0.48c-1.023-0.58-2.252-1.162-3.455-1.683c-4.885-2.113-10.71-3.55-17.004-3.751
							c-6.287-0.181-11.146,0.231-15.413,0.669c-4.267,0.473-7.964,1.017-11.911,2.018c-3.935,1.023-8.156,2.506-13.153,5.511
							c-4.947,3.027-10.779,7.603-16.683,15.476c5.047-8.991,10.72-15.347,11.093-17.209c-1.568,0.521-4.74,2.977-8.202,6.811
							c-3.471,3.818-7.137,9.048-10.031,14.575c-2.928,5.516-5.088,11.282-6.486,15.847c-0.359,1.158-0.656,2.165-0.95,3.217
							l-0.707,2.521c-0.41,1.458-0.715,2.46-0.939,2.836c-2.586,4.79-5.018,10.569-6.481,19.111
							c-0.703,4.273-1.14,9.248-0.907,15.129c0.247,5.871,1.146,12.674,3.518,20.396
							C101.145,162.798,104.958,169.995,109.665,176.54z"/>
						<path fill="#E0DEE6" d="M143.875,71.912c-2.533,2.106-4.009,3.319-4.979,3.769c-0.963,0.458-1.392,0.18-1.605-0.438
							c-0.444-1.225,0.137-3.786-1.17-3.96c-1.312,0.24-4.287,3.146-7.059,7.095c-2.814,3.919-5.298,8.861-6.917,12.272
							c-2.443,5.122-3.777,8.015-4.952,9.502c-1.147,1.497-2.047,1.609-2.872,1.496c-0.823-0.109-1.563-0.441-2.359,0.285
							c-0.779,0.729-1.679,2.519-2.455,6.75c-1.936,10.493-2.164,19.195-1.892,26.417c0.299,7.231,1.104,13.017,1.946,17.981
							c0.871,4.967,1.791,9.125,2.92,13.119c1.148,3.986,2.497,7.826,4.711,12.021c1.277,2.429,5.364,7.184,11.382,11.557
							c0.473-0.347,1.411-0.363,3.049,0.014c1.053,0.021-2.645-2.98-6.616-7.418c-1.993-2.209-4.046-4.771-5.78-7.306
							c-1.742-2.53-3.176-5.021-4.134-6.997c-0.928-5.414,5.839,3.475,14.788,9.268c1.365,0.811,2.794,1.596,4.26,2.314
							c0.106,0.158,0.232,0.317,0.358,0.471c1.219,0.66,2.423,1.248,3.554,1.738c-2.674-2.307-4.982-4.768-6.861-7.187
							c-0.854-0.783-1.702-1.66-2.537-2.675l1.472,1.244c-2.462-3.438-4.019-6.681-4.688-9.103c-0.377-1.976-1.399-4.683-2.503-7.94
							c-0.748-1.273-1.457-2.629-2.113-4.125c0.683,1.39,1.237,2.26,1.691,2.877c-0.981-2.961-1.985-6.322-2.749-9.885
							c-0.771-3.559-1.31-7.313-1.521-10.986c-0.456-7.355,0.494-14.345,2.156-18.793c0.767-1.719,1.667-5.088,2.97-8.982
							c0.648-1.94,1.394-4.044,2.228-6.086c0.822-1.992,1.764-4.013,2.763-5.851c1.995-3.697,4.266-6.748,6.112-8.434
							c1.853-1.694,3.202-2.065,3.571-0.602c0.796-1.812,2.286-3.737,3.884-5.516c1.595-1.789,3.29-3.428,4.459-4.964
							c0.042,1.174,0.61,1.785,1.456,2.07c1.595-1.123,3.352-2.286,4.855-3.091c1.501-0.81,2.73-1.282,3.229-1.184
							c-0.092,1.048-2.696,2.419-4.873,4.393l1.009-0.124l0.86-0.521l3.582-3.5c1.059-1.532,2.422-3.109,3.545-4.354
							c-0.211,0.948-1.705,2.513-3.545,4.354c-0.555,0.793-1.02,1.564-1.356,2.25c3.278-1.744,6.819-3.223,10.665-4.322l2.053-1.138
							c-0.56,0.306-1.17,0.668-1.793,1.064c0.523-0.145,1.052-0.282,1.589-0.411c1.349-0.761,3.428-1.826,6.006-2.739
							c2.571-0.922,5.646-1.669,8.843-1.99c1.987,1.132,4.028,2.162,6.165,3.203l1.622,0.785l0.411,0.199l0.104,0.049l0.051,0.023
							l0.027,0.013l0.012,0.006l0.004,0.001c-0.607-0.176-0.166-0.047-0.301-0.086l0.012,0.004l0.336,0.141
							c0.408,0.176,1.059,0.415,1.029,0.469l0.185,0.129c0.062,0.04,0.217,0.123,0.321,0.181c0.234,0.121,0.47,0.249,0.703,0.379
							l1.418,0.785c0.015-1.505-0.791-3.388-2.892-5.313c-2.364-1.979-5.938-3.974-10.705-5.122
							c-4.745-1.15-10.722-1.398-17.269,0.156C157.217,63.151,150.174,66.536,143.875,71.912z"/>
					</g>
				</g>
			</g>
		</g>
	</g>
	<g>
		<g>
			<g>
				<g>
					<g>
						<path fill="#1072BA" d="M180.225,102.69c0.271-0.146,0.641-0.411,0.971-0.578C180.415,102.815,180.072,103.19,180.225,102.69z
							"/>
						<path fill="#1072BA" d="M193.306,102.809c-1.377-1.109-3.514-2.115-5.815-2.193c-2.301-0.143-4.586,0.628-6.295,1.497
							c0.625-0.56,1.595-1.315,2.865-1.875c1.26-0.562,2.827-0.886,4.32-0.765c1.493,0.101,2.861,0.641,3.746,1.314
							C193.021,101.463,193.434,102.231,193.306,102.809z"/>
						<path fill="#1072BA" d="M177.188,100.777c1.582-1.372,3.451-2.408,5.435-2.955c-1.533,0.957-2.125,1.289-2.815,1.496
							C179.146,99.547,178.398,99.667,177.188,100.777z"/>
						<path fill="#1072BA" d="M180.121,100.828l0.277,0.792c-0.873,0.376-1.703,0.861-2.514,1.476
							C178.541,102.24,179.281,101.493,180.121,100.828z"/>
						<path fill="#1072BA" d="M215.538,142.36c-0.543-0.016-0.97-0.16-1.104-0.663L215.538,142.36z"/>
						<path fill="#1072BA" d="M225.011,137.85c0.669-0.67,1.079-1.157,1.423-1.585C226.123,136.812,225.751,137.196,225.011,137.85z
							"/>
						<path fill="#1072BA" d="M208.434,147.007c0.492-0.258,0.978-0.528,1.455-0.809
							C209.465,146.538,208.958,146.835,208.434,147.007z"/>
						<path fill="#1072BA" d="M182.418,86.225c1.665,0.37,3.111,0.908,4.15,1.351c-1.463,0.203-2.221,0.084-2.781-0.23
							C183.232,87.033,182.902,86.552,182.418,86.225z"/>
						<path fill="#1072BA" d="M246.788,89.808l-0.72-0.412C246.232,88.767,246.462,88.426,246.788,89.808z"/>
						<path fill="#1072BA" d="M235.27,141.769c-0.334-0.167-0.5-0.406-0.552-0.686l0.224-0.199l0.11-0.1l0.058-0.047l0.027-0.021
							l0.016-0.012l0.006-0.006l0.005-0.003l0.049-0.073h0.001l0.002-0.002v0.004v0.002l-0.048,0.072l0,0l0,0l0.001,0.002v0.01
							l0.002,0.017l0.003,0.034l0.007,0.066l0.014,0.135l0.025,0.269L235.27,141.769z"/>
						<path fill="#1072BA" d="M202.467,150.314c-0.02,0.031-0.059,0.058-0.076,0.089c-0.484-0.025-0.969-0.076-1.445-0.121
							C201.652,150.032,202.129,150.046,202.467,150.314z"/>
						<path fill="#1072BA" d="M242.316,72.595c-0.018-0.874,0.062-1.768,0.281-2.645C243.117,71.669,242.88,72.67,242.316,72.595z"
							/>
						<path fill="#1072BA" d="M226.58,136.042c0.021-0.016,0.016,0.011,0.037-0.004l-0.184,0.227
							C226.482,136.183,226.536,136.126,226.58,136.042z"/>
						<path fill="#1072BA" d="M221.725,154.591c0.873-0.473,1.665-0.967,2.584-1.512
							C223.406,153.98,222.431,154.458,221.725,154.591z"/>
						<path fill="#1072BA" d="M182.418,86.225c-0.475-0.099-0.947-0.187-1.432-0.267C181.631,85.85,182.066,85.992,182.418,86.225z"
							/>
						<path fill="#1072BA" d="M177.281,114.368c0.082,1.41-0.254,1.805-0.674,2.166C176.67,115.684,176.893,114.935,177.281,114.368
							z"/>
						<path fill="#1072BA" d="M151.724,169.073l0.53,0.229C152.016,169.245,151.85,169.161,151.724,169.073z"/>
						<path fill="#1072BA" d="M119.724,128.202c0.089-0.277,0.19-0.565,0.36-0.793C120.332,127.82,120.098,128.132,119.724,128.202z
							"/>
						<path fill="#1072BA" d="M115.007,72.235c-1.286,4.126-4.895,7.262-6.424,10.777l1.223-0.889
							c-0.695,1.075-1.372,2.17-2.024,3.285l1.072,0.358c-1.355,2.825-2.268,6.232-3.014,9.154c-0.755,2.926-1.376,5.37-2.465,6.362
							l1.914-0.404c-0.874,2.082-1.671,4.221-2.38,6.411c0.54-1.239,1.107-2.457,1.7-3.648c-0.388,3.713-1.023,8.381-1.296,12.405
							c-0.3,4.016-0.292,7.355-0.2,8.164l0.601-0.748c0.465,1.197,0.142,2.212,0.111,3.537l0.863-1.129
							c0.641,5.654,2.087,9.09,3.59,12.547l5.773,12.765c1.931,2.862-0.676-1.819-0.154-2.144c0.787,0.635,1.542,1.979,2.166,3.285
							c0.62,1.307,1.109,2.582,1.194,3.104c0.695-1.695-2.359-5.832,0.755-3.162c0.842,2.721,0.195-2.319,2.588,1.824
							c-0.197,0.896-0.376,1.804-0.536,2.724c1.958,1.951,1.54-0.481,4.106,2.899c1.283,2.102-0.126,1.396-1.261,0.857
							c-1.104-0.552-1.999-0.839,0.604,2.29c1.44,1.453,3.791,2.148,6.358,3.043c2.589,0.904,5.348,2.003,8.166,4.474
							c3.002,1.25,2.675,0.086,2.534-0.67c-0.07-0.39-0.097-0.694,0.328-0.601c0.43,0.088,1.294,0.597,3.114,1.704
							c-1.401-1.234-2.727-2.527-3.978-3.861c1.479,0.237,1.236-1.022,4.088,1.1c0.583,1.224,2.129,3.158,3.905,4.046
							c-1.643-1.158-1.967-1.722-1.686-1.931c0.285-0.215,1.192-0.108,2.116-0.043c1.871,0.131,3.702,0.153,0.949-2.117
							c0.762,0.375,1.537,0.728,2.316,1.068c-0.267-0.188-0.265-0.402-0.05-0.479l1.598,0.544l1.62,0.503l-1.726-0.945
							c-0.635-0.346-1.273-0.726-1.77-1.087c-0.991-0.731-1.392-1.374-0.083-1.614c0.741,0.256,1.493,0.489,2.244,0.715
							c0.802,0.236,1.38,0.384,2.301,0.629c-0.964-1.516,1.008-1.332,1.008-2.285l-0.87-0.442l-0.666-0.384l-1.42-0.837
							c-0.938-0.571-1.85-1.168-2.734-1.789c-1.77-1.241-3.429-2.577-4.968-3.998c0.031,0.834,1.379,2.151,0.445,2.39
							c-1.626-0.637-2.044-1.301-2.449-1.89c-0.403-0.603-0.794-1.127-2.337-1.729c0.188,0.523,0.389,1.047,0.6,1.57
							c-0.009-0.427-0.307-0.785,0.326-0.458c1.245,0.191,1.268,1.013,0.96,1.488c-1.619,0.319-3.843-2.362-4.022-3.603
							c-1.617-1.314-2.105-1.123-2.336-0.591c-0.228,0.525-0.145,1.364-0.617,1.164c-0.184-1.466-1.456-2.692-2.795-3.989
							c-1.341-1.283-2.741-2.652-3.164-4c0.003,0.705,0.019,1.416,0.054,2.131c-1.626-0.875-2.623-2.193-3.246-3.5
							c-0.63-1.31-0.89-2.608-1.166-3.576l-0.515,1.164c-1.074-2.121-2.556-3.393-3.569-4.797c-1.003-1.391-1.532-2.918-0.386-5.209
							l-0.485,0.69c-0.939-1.747-2.463-4.554-1.784-6.655c-0.42,0.041-1.013-0.186-1.285-0.97c1.17-1.321-0.225-3.167-0.73-6.147
							c-0.174,2.009-2.033,1.562-2.192,3.771c-1.231-2.269-0.808-3.465-0.154-4.502c0.666-1.051,1.558-1.974,1.521-3.926
							c-0.942-2.366-0.994,2.13-1.598,2.75c0.331-3.101-0.637-6.267-1.092-9.295c-0.462-3-0.406-5.81,1.735-7.423
							c0.209,0.955,0.428,1.898,0.674,2.831c1.145-2.298,1.435-3.562,1.035-3.345c-0.037,0.789-0.419,0.986-0.798,1.199
							c-0.227-3.839,1.201-6.581,2.84-9.084c1.659-2.526,3.525-4.837,4.717-8.325c-0.84,0.213-1.474,1.101-2.01,0.919
							c0.374-1.723,1.532-2.126,2.711-2.757c1.194-0.637,2.38-1.491,3.107-4.197l-1.208,0.553c0.479-1.841,2.165-2.425,2.228-2.094
							c-1.279-0.829,0.25-3.38,2.132-6.147c1.879-2.802,4.19-5.771,4.111-8.56c1.561-0.438,3.937-1.768,6.146-3.1
							c2.201-1.352,4.241-2.729,4.942-3.771c0.866-1.704-0.017-1.717-1.155-1.521c-1.128,0.19-2.482,0.617-2.465-0.459
							c1.119-0.837,2.236-1.103,3.444-1.483c1.214-0.38,2.51-0.877,4.147-2.127c0.427,0.724-0.875,2.451-1.325,3.652
							c-0.454,1.219-0.175,1.757,3.15,0.385l0.439-1.284c-0.608,0.466-1.324,1.264-2.333,1.616c-2.322,0.242,0.483-1.64,0.711-2.265
							c2.396-1.153,4.854-2.143,7.357-2.951c0.598,0.738-0.227,1.425-1.195,2.044c-0.974,0.615-2.106,1.176-2.217,1.486
							c2.619-1.508,5.449-3.46,8.527-4.94c3.055-1.49,6.346-2.482,9.297-2.21l-0.631-0.607c3.774,0.337,4.779-0.43,5.688-1.132
							c0.877-0.66,1.681-1.209,4.611,0.395c1.592-0.134,1.354-0.616,1.301-1.065c-0.049-0.432,0.103-0.862,2.57-0.646
							c1.385,0.171,0.477,0.742,0.209,0.936c2.908,0.729,3.61,0.488,4.271,0.303c0.643-0.164,1.265-0.256,3.727,1.268
							c-0.212-0.724-0.438-1.44-0.677-2.162c3.144,1.48,5.999,3.727,8.563,5.855c2.582,2.135,4.89,4.144,7.432,5.282
							c0.535-1.437-2.518-3.125-3.262-4.743c2.816,2.982,6.535,5.5,10.066,8.356c3.443,2.769,6.633,5.982,8.123,9.214
							c-1.131-0.447-1.203,0.648-1.479,1.472c-0.273,0.835-0.688,1.359-2.355,0.04c0.84-2.035-1.398-2.796-2.775-4.526
							c-0.235,2.731,2.479,5.059,4.847,7.63c2.384,2.512,4.381,5.153,2.981,6.418l1.742,0.229c0.239,1.027,0.159,3.77-0.934,2.352
							c1.205,2.038,2.279,4.184,3.219,6.413c0.209-1.359,0.503-3.54,0.367-5.549c-0.122-2.004-0.67-3.802-1.766-4.238
							c0.256-1.296,0.813-0.726,1.424-0.111c0.594,0.613,1.232,1.276,1.656,0.017c-0.078,2.879,0.39,3.49,1.152,4.1
							c0.742,0.598,1.764,1.171,2.275,3.879c-1.377-0.884-1.668,0.621-1.854,2.283c-0.172,1.671-0.276,3.534-0.806,3.516
							c0.749,1.583,0.244,5.441-0.41,6.886c0.008,1.448,0.502,3.813,0.707,6.461c0.227,2.64,0.135,5.56-0.646,7.816
							c0.992-1.621,2.174-4.401,3.498-4.069c-0.998,2.336-1.438,4.875,0.017,5.645c1.121-2.013,1.405-3.298,1.334-4.113
							c-0.08-0.821-0.536-1.198-1.019-1.544c-1.004-0.709-2.018-1.23-0.984-5.021c1.813-1.878,2.279-4.104,2.354-8.271
							c1.236,1.773,1.581,0.902,2.904,1.583c-1.657,2.791-1.646,6.048-1.712,9.604c-0.054,3.523-0.235,7.368-1.921,10.423
							c-0.871,1.238-1.77,1.177-2.686,1.55c-0.926,0.367-1.828,1.161-3.008,3.897c0.215-1.736,0.344-3.469,0.391-5.187
							c-0.217,2.813-0.644,3.042-1.131,3.091c-0.51,0.045-1.127-0.062-2.084,1.94c0.588-0.403,1.18-0.82,1.758-1.257
							c-0.68,2.695-1.32,3.572-2.748,4.584c0.899-0.437,1.787-0.906,2.677-1.406c-0.32,1.507-1.332,4.177-2.364,3.693
							c0.241,0.554,0.508,0.846,0.797,0.992c-0.422,0.121-0.91,0.676-1.738,2.246c0.718-0.793,0.951-1.524,1.468-1.275
							c-1.841,2.894-1.683,3.457-1.242,3.828c0.415,0.354,1.082,0.451-0.224,2.248c0.386-0.178,0.511,0.082,0.447,0.571
							c-0.058,0.466-0.293,1.152-0.686,1.862c-1.174-0.932-3.115,0.249-5.188,1.461c-2.072,1.23-4.328,2.473-5.652,2.427l0.05,0.019
							c-1.632,0.764-3.292,1.383-4.954,1.859c1.008-0.311,0.486,0.98-0.745,1.961l0.211-0.125c-0.639,0.586,0.161,1.096,0.532,1.637
							c0.368,0.521,0.271,1.195-2.375,1.839c-0.98,0.073-1.954,0.104-2.912,0.097c0.499-0.046,0.189,0.537,0.004,0.829
							c-0.997,0.022-1.984-0.003-2.958-0.071c-1.827,1.831-4.094,1.711-6.233,1.186c-2.188-0.527-4.234-1.401-6.803-1.166
							c1.452,0.05,3.623,0.441,2.596,1.261c-1.037,0.253-2.506-0.313-3.164-0.899l0.188,0.375c-3.094-1.217-5.92-2.865-8.409-4.83
							c0.101,0.627,1.353,1.541,2.31,2.225c0.948,0.688,1.587,1.221,0.225,1.339c-0.931,0.384-1.96-0.063-2.896-0.735
							c-0.941-0.672-1.776-1.567-2.514-2.067c0.621-0.531,3.688,0.341,1.133-1.563c-0.523,0.196-3.558-0.824-2.651,0.447
							c-0.601-0.632-1.257-1.329-1.92-2.066l-1.011-1.16c-0.291-0.373-0.551-0.729-0.852-1.144c-1.138-1.6-1.994-3.325-2.255-4.842
							c-0.804-0.498-0.246,0.812-0.021,1.239l0.315,0.031c0.433,0.859,0.106,1.248,0.05,1.713c-0.055,0.453,0.166,1.037,1.84,2.054
							c-0.75,1.073-1.967,0.249-3.168-1.267c-1.216-1.506-2.293-3.662-3.326-5.069c0.445,1.897,1.066,3.801,1.892,5.663
							c-2.287-1.288-4.263-3.385-5.724-5.905c-1.469-2.521-2.424-5.452-2.896-8.425c-0.479-2.977-0.494-5.987-0.246-8.805
							c0.238-2.824,0.738-5.454,1.182-7.846c0.289,2.924-0.531,5.211,1.502,4.98c0.668-2.827,1.059-3.979,1.342-5.169
							c0.318-1.17,0.537-2.389,1.662-4.931l-0.264,0.414c-0.018-1.536,0.889-3.05,1.74-4.373c0.862-1.349,1.631-2.479,1.452-3.835
							c-0.216,0.071-0.405,0.195-0.577,0.354c-0.113,0.073-0.271,0.3-0.382,0.479c-0.235,0.391-0.406,0.857-0.575,1.276
							c-0.345,0.834-0.695,1.479-1.723,1c0.589-1.087,1.232-2.143,1.931-3.158c0.138-0.188,0.396-0.571,0.541-0.755
							c0.163-0.222,0.341-0.453,0.53-0.69c0.373-0.467,0.757-0.924,1.161-1.359c-1.245,0.385-2.441,1.873-3.347,3.562
							c-0.943,1.705-1.609,3.593-2.299,4.85c-0.324,0.981,0.119,0.034,0.822-0.919c0.703-0.96,1.667-1.878,2.102-1.114
							c-1.545,2.932-2.502,4.761-3.592,6.187c-1.061,1.438-2.217,2.475-3.543,4.101c-0.938,0.985-1.235,0.141-1.217-1.179
							c0.013-1.313,0.414-3.044,0.61-3.729c1.775-2.047,3.56-4.434,5.417-6.989c1.873-2.584,3.736-5.269,5.98-8.01
							c0.565-1.285,1.258-2.558,2.085-3.788c1.981-0.347,2.982,0.485,4.103,0.937c1.143,0.496,2.303,0.572,4.912-0.293
							c-0.629-0.275-1.283-0.514-1.965-0.728c1.078-0.855,1.916-1.195,2.545-1.306c-2.717-0.458-5.928-0.361-8.715,0.162
							c1.01-2.129,3.987-3.155,7.123-3.122c3.176-0.004,6.33,1.032,8.877,1.677c-0.221-0.391-2.07-0.668-2.643-1.33
							c2.079-0.11,4.197,0.305,6.122,1.089c1.93,0.782,3.661,1.929,5.123,3.229c0.733,0.649,1.403,1.335,2.015,2.034
							c0.323,0.363,0.566,0.677,0.891,1.066c0.244,0.333,0.502,0.677,0.742,1.029c0.965,1.395,1.698,2.766,2.377,3.992
							c1.112,0.712,0.701-0.4,0.082-1.67c-0.598-1.261-1.482-2.62-0.43-2.752c0.887,1.414,2.063,2.68,2.889,3.894
							c0.826,1.2,1.282,2.295,0.729,2.997c0.74-1.117,1.568,0.62,1.969,1.884c0.211,0.623,0.344,1.107,0.456,1.01
							c0.104-0.101,0.24-0.776,0.164-2.534c1.334,2.885,1.983,6.188,1.884,9.499c-0.095,3.313-0.941,6.629-2.429,9.582
							c-1.488,2.938-3.567,5.59-6.144,7.389c-2.559,1.818-5.522,2.772-8.332,2.871c0.644,0.58,0.789,1.127,0.338,1.664
							c2.095-0.323,4.615-1.094,6.836-2.189c2.238-1.063,4.162-2.396,5.58-2.959c-0.489,1.597-2.147,2.732-3.642,3.324
							c-1.506,0.617-2.815,0.76-3.032,1.264c0.813-0.113,1.881-0.618,2.787-1.059c0.912-0.43,1.691-0.783,2.1-0.387
							c-1.149,1.909-2.752,2.786-4.237,3.199c-1.513,0.42-2.931,0.424-4.358,0.684c0.463-0.315,0.902-0.649,1.321-0.998
							c-2.209,0.352-3.634,0.043-4.601-0.303c-0.971-0.363-1.518-0.807-2.049-1.188c-0.529-0.39-1.041-0.724-1.875-1.046
							c-0.83-0.34-1.99-0.629-3.762-1.342c-1.548-0.047-1.724,0.121-1.553,0.617c0.159,0.481,0.695,1.166,0.346,1.94
							c-0.402-0.388-1.111-0.788-1.947-1.288c-0.426-0.261-0.836-0.506-1.336-0.854c-0.211-0.151-0.41-0.281-0.638-0.457
							c-0.228-0.186-0.478-0.377-0.688-0.57c-1.758-1.514-2.975-3.643-2.579-4.996c0.786,1.581,1.825,3.039,3.089,4.262
							c-2.245-2.951-3.411-6.271-3.23-8.736c-0.32,0.305-0.654,0.58-0.617,1.362c-0.09-1.46-0.162-3.081,0.045-4.507
							c0.201-1.423,0.678-2.618,1.38-3.145c-0.539-0.377-1.062-0.779-1.568-1.209c0.132,0.958,0.03,2.648,0.007,4.224
							c-0.039,1.573-0.035,3.052-0.443,3.584c-0.821-0.094-1.258-1.608-1.186-3.387c0.037-1.782,0.629-3.712,0.928-4.88
							c-0.869,2.538-1.199,4.581-1.428,6.314c-0.201,1.735-0.283,3.18-0.186,4.582c0.104,1.396,0.361,2.775,1.096,4.281
							c0.748,1.504,1.904,3.132,4.145,4.707l-0.088-0.167l-0.133-0.216l-0.255-0.43c-0.18-0.289-0.287-0.552-0.423-0.822
							l1.021,0.703c0.379,0.278,0.594,0.377,0.883,0.582l0.992,0.666l0.94,0.616c1.258,0.815,2.548,1.609,3.922,2.277
							c2.718,1.349,5.864,2.146,8.687,1.706c-1.525,0.566-1.887,1.199-1.059,1.464c6.621-1.231,12.247-5.037,15.775-10.323
							c3.388-5.041,5.297-11.41,4.558-17.999c0.536-1.349,0.979-2.771,1.318-4.257l-1.386-0.004
							c-0.457-1.576-0.672-2.446-0.67-2.978c0.002-0.528,0.203-0.707,0.453-0.819c0.477-0.223,1.178-0.188,0.323-2.277
							c0.612,1.601,0.265,1.388,0.062,1.818c-0.26-2.009-0.721-3.25-1.131-4.017c-0.422-0.768-0.812-1.074-1.174-1.257
							c-0.742-0.361-1.309-0.271-2.361-2.194c0.02,1.267,0.976,3.068,1.459,4.552c0.498,1.481,0.602,2.527-0.623,2.051
							c-0.316-1.788-1.069-3.75-2.141-5.596c-1.07-1.855-2.423-3.564-3.841-5.052c-2.705-2.877-5.332-4.825-5.159-6.568
							c-3.51-1.37-7.379-2.383-11.408-2.691c-4.021-0.323-8.186,0.058-12.092,1.176c-3.912,1.104-7.548,2.932-10.594,5.17
							c-3.045,2.227-5.529,4.883-7.291,7.411l-0.039,0.237l-0.004,0.023v0.013v0.006c-0.099,0.147-0.027,0.042-0.049,0.075v0.001
							v0.001v0.003l-0.007,0.05l-0.006,0.085c-0.002,0.101,0.019,0.152,0.052,0.169c0.035,0.017,0.084-0.001,0.143-0.04l0.096-0.072
							l0.006-0.005l0.003-0.002l0.001-0.001l0.049-0.072l0.01-0.008l0.025-0.018l0.047-0.039c0.26-0.211,0.568-0.52,0.609-0.171
							c-2.104,1.354-3.848,5.098-4.715,8.336c-0.924,3.25-1.166,5.989-2.008,5.818c-0.088,2.32,1.01,3.453,1.354,4.098
							c-1.282,2.68-1.975,6.192-2.01,9.938c0.106-0.92,0.25-1.834,0.407-2.736l0.229,0.297c-0.222,1.275-0.392,2.568-0.507,3.875
							l-0.117-0.135c0.118,4.673,1.223,9.668,2.977,14.347c1.736,4.7,4.104,9.067,6.395,13.05c-1.26-2.336-0.595-2.399,0.146-2.184
							c0.762,0.219,1.686,0.668,1.191-0.423c0.17,1.255,0.771,2.718,1.777,4.227c0.514,0.765,1.061,1.49,1.849,2.331l0.462,0.506
							l0.222,0.236l0.056,0.061l0.086,0.07l0.009,0.008l0.018,0.018l0.034,0.033l0.139,0.135c0.373,0.354,0.756,0.719,1.164,1.064
							c3.225,2.827,7.588,5.172,11.729,6.559c0.172-0.543,0.938-0.735,0.17-1.51c1.393,0.931,2.855,1.793,4.386,2.578l-0.465-0.826
							c4.321,0.963,8.845,2.129,13.231,2.537c4.359,0.435,8.506,0.063,11.235-1.365c-3.682,0.638-3.821-0.043-4.339-0.832
							c3.1-0.545,6.042-1.387,9.03-2.487c2.987-1.106,6.026-2.474,9.304-4.251c-0.422,0.089-0.74,0.078-0.865-0.085
							c1.446-1.261,3.676-2.124,5.385-3.21l-0.703-1.189c1.584-0.992,3.095-2.5,4.565-4.131l2.236-2.484
							c0.379-0.426,0.755-0.81,1.17-1.246l0.631-0.642c0.22-0.217,0.376-0.35,0.574-0.521c-0.127-1.141,1.553-3.064,3.375-5.514
							c1.833-2.42,3.752-5.386,4.33-7.843c0.973-1.641-2.912,3.277-0.979-1.614c1.508,0.146,2.107-1.5,2.629-3.111
							c0.534-1.611,0.989-3.192,2.582-3.036c0-1.642-0.054-3.269-0.172-4.879l1.73-0.779c-1.148-2.24-0.656-3.667,0.078-5.41
							c0.727-1.723,1.692-3.776,1.203-6.835c-0.34,0.329-0.447,0.973-0.676,0.662c0.358-1.945,0.286-6.509,1.278-3.021
							c-0.058-1.636-0.164-5.258-0.587-7.809c-0.418-2.556-0.959-3.998-1.334-1.409c0.418-0.254,0.629,0.778,0.695,2.122
							c0.07,1.344-0.037,2.99-0.119,3.977c-0.688-0.072-1-1.314-1.383-2.653c-0.392-1.338-0.853-2.774-1.684-3.224
							c0.12-0.173,0.242-0.826,0.381-1.313l-0.955-0.499c0.168-3.031-0.52-5.979-1.244-8.688c-0.736-2.716-1.511-5.2-1.554-7.615
							c-0.495-0.06-1.217-0.896-2.079-2.786l1.465-0.863c-1.025-1.946-2.146-3.848-3.355-5.695
							c-0.131,1.316-0.298,2.611-0.508,3.887c-1.98-2.889-3.217-5.632-4.471-8.329c-1.256-2.679-2.535-5.307-4.578-7.558
							c-0.771,0.235-1.629-0.175-2.612-0.962c-0.265-0.207-0.537-0.437-0.817-0.687l-0.773-0.712l-1.695-1.614
							c-2.376-2.254-5.371-4.65-8.188-4.834c1.17,0.988,2.301,2.006,3.394,3.051c-3.839-2.871-6.496-3.897-9.005-4.871
							c-2.545-0.938-4.956-1.841-9.057-3.693c3.767,0.736,5.584,1.425,7.852,2.14c2.258,0.771,4.99,1.507,10.41,3.586
							c-5.109-2.593-9.34-5.103-13.779-7.172c-4.415-2.042-9.07-3.625-14.451-3.635c0.607,0.769,3.085,1.658,0.469,1.902
							c-0.871-0.894-3.319-1.23-5.319-1.408c-1.999-0.191-3.566-0.277-2.751-1.103c-3.315,0.459-3.848,2.095-5.771,2.381
							c-3.573-0.562-7.243-0.841-10.96-0.82l0.398,0.265c-4.357,1.843-8.434,3.406-12.453,4.965
							c-4.012,1.559-7.966,3.116-11.843,4.975c-3.872,1.853-7.662,4.014-11.162,6.703c-3.492,2.69-6.693,5.914-9.232,9.773
							l0.925,0.292c-1.296,0.902-2.574,1.848-3.831,2.835c2.828-2.378,0,1.915,0.521,2.62c-2.684,2.767-5.178,5.642-7.559,8.742
							C112.09,74.565,113.974,74.799,115.007,72.235z M239.871,69.609c0.39,0.834,0.77,1.672,1.119,2.521
							c0.318,0.461,0.576,0.972,0.66,1.616c-0.211-0.542-0.43-1.081-0.66-1.616C240.18,70.944,239.07,70.366,239.871,69.609z
							 M191.609,78.266c0.598,0.55,0.09,0.477-0.688,0.292c-0.777-0.188-1.854-0.459-2.352-0.458
							c1.566,0.258,3.106,0.643,4.601,1.144C193.931,78.987,192.273,78.517,191.609,78.266z M230.218,74.827
							c-0.54-0.204-1.067-0.405-1.606-0.59c-0.006-0.613-0.006-1.238-0.033-1.857C229.146,73.178,229.689,73.997,230.218,74.827z
							 M207.445,51.856c0.847,0.723,1.668,1.467,2.467,2.229l-0.352,0.048c-0.789-0.75-1.602-1.481-2.438-2.193L207.445,51.856z
							 M171.145,35.797c0.242,0.039,0.473,0.062,0.752,0.141C171.652,35.921,171.393,35.87,171.145,35.797
							c-1.509-0.223-2.486,0.244-3.395,0.564c-0.915,0.327-1.762,0.506-3.148-0.197C167.161,33.866,169.432,35.316,171.145,35.797z
							 M230.818,59.356c0.64,1.132,0.936,1.688,1.592,2.356c0.162-0.926-0.707-3.604,0.685-2.251c0.104,0.772,0.791,2.07,1.29,3.285
							c0.503,1.213,0.826,2.33,0.369,2.664c-0.521-1.928-1.893-2.976-2.91-3.733C230.828,60.905,230.132,60.403,230.818,59.356z
							 M232.896,142.214l0.49-0.897c-0.97,0.882-1.882,1.581-2.845,2.321C231.332,143.187,232.115,142.712,232.896,142.214z
							 M220.413,152.889c-1.212-0.04-2.791,0.641-4.519,1.405c-1.722,0.772-3.6,1.632-5.229,2.09
							c-0.179,0.736,0.659,1.152,2.049,1.105c1.38-0.048,3.302-0.595,5.075-1.707c2.395-0.771,2.503-1.488,2.301-1.947
							C219.887,153.358,219.37,153.063,220.413,152.889z M206.863,43.703l0.394,1.311l-0.826-0.265
							c0.98,0.707,1.937,1.438,2.865,2.19c-2.365-0.489-3.99-1.582-5.36-2.74c-1.361-1.158-2.455-2.372-3.531-2.981
							c0.994,0.396,2.615,1.694,3.931,2.584C205.652,44.682,206.73,45.146,206.863,43.703z M187.135,159.335
							c-1.617-0.764-3.805-1.855-5.377-2.967c-1.584-1.103-2.576-2.142-2.13-2.498c-0.479,0.838,0.285,1.945,1.438,2.854
							c1.146,0.912,2.658,1.595,3.41,1.776C185.375,158.622,185.977,158.874,187.135,159.335z M187.999,155.811
							c2.177,0.853,3.384,1.396,4.469,2.039c1.095,0.629,2.063,1.362,3.996,2.213c-2.485,0.476-4.086-0.094-4.886-0.801
							c-0.811-0.731-0.875-1.618-0.547-2.099c-1.553-0.627-2.186-0.658-2.687-0.514c-0.497,0.145-0.842,0.459-1.726,0.387
							C187.094,156.63,187.551,156.232,187.999,155.811z M192.363,161.814c0.716-0.043,1.427-0.099,2.134-0.175
							c1.263-0.379,1.987-1.148,2.819-1.559c0.842-0.42,1.761-0.468,3.602,0.396c-2.086,0.544-4.234,0.936-6.421,1.161
							C193.938,161.819,193.234,161.909,192.363,161.814z M156.685,139.339c0.153,0.73,0.327,1.466,0.524,2.197
							C156.145,139.665,156.321,139.29,156.685,139.339c-0.124-0.611-0.238-1.221-0.331-1.829c1.352,1.881,1.682,2.315,1.501,2.339
							C157.68,139.866,157.059,139.405,156.685,139.339z M182.313,159.304c1.92,0.66,3.889,1.207,5.894,1.6
							c-0.104-0.474-1.099-0.751-2.304-0.982C184.697,159.69,183.275,159.479,182.313,159.304z M158.84,139.655
							c0.685,1.051,2.018,2.875,3.211,4.262c1.189,1.389,2.184,2.379,1.83,2.09c-0.57,0.13-1.848-0.969-2.928-2.393
							C159.86,142.198,159.002,140.479,158.84,139.655z M209.783,116.673c0.408-1.118,0.746-2.266,1.006-3.431
							c0.339,0.654,0.648,1.331,0.938,2.033C211.093,115.78,210.439,116.245,209.783,116.673z M192.931,83.782
							c0.343-0.131,0.687-0.242,1.04-0.359c0.627,0.273,1.246,0.563,1.85,0.88C194.857,84.071,193.893,83.897,192.931,83.782z
							 M161.613,97.234c-0.17-0.298-0.541-0.399-0.969-0.281c-0.375,0.445-0.771,0.804-1.133,0.896
							c0.232-0.472,0.705-0.79,1.133-0.896c1.002-1.189,2.041-3.096,2.377-4.207c-0.439,0.02-1.061,0.644-1.535,1.172
							c-0.549,0.631-1.029,1.271-1.465,1.563c0.107-0.967,0.736-1.982,1.584-2.9c0.861-0.949,1.906-1.742,2.801-2.407
							c0.891-0.664,1.608-1.2,1.814-1.694c0.199-0.492-0.109-0.979-1.345-1.408c0.776-0.363,2.411-1.188,3.75-1.552
							c1.339-0.378,2.317-0.372,1.792,0.438c-1.768,0.981-4.031,2.919-5.696,5.153C163.021,93.328,161.955,95.762,161.613,97.234
							c0.125,0.269,0.146,0.639-0.133,1.234C161.424,98.221,161.486,97.759,161.613,97.234z M167.105,142.823
							c0.826,1.075,1.162,1.582,1.248,1.881c0.596,1.063,0.965,2.051,0.274,2.295c-1.808-2.428-0.036-1.514-0.274-2.295
							C167.98,144.052,167.564,143.396,167.105,142.823z M173.689,148.177c-1.047-1.081-2.011-2.186-2.908-3.354
							c0.146,0.354,0.322,0.722,0.515,1.093c0.187,0.375,0.353,0.705,0.552,1.076c-1.408-1.863-2.512-3.773-3.445-5.771
							c1.547,1.06,2.793,2.403,3.802,3.735C173.152,146.245,173.804,147.501,173.689,148.177z M175.46,148.286l0.185,1.412
							c-0.199-0.57-0.396-1.123-0.566-1.689L175.46,148.286l-0.037-0.32c1.911,1.474,3.97,2.785,6.151,3.893
							C179.425,150.851,177.375,149.657,175.46,148.286z M236.212,123.577c-1.358-1.953-2.501-0.567-3.668,1.237
							c-1.159,1.823-2.457,4.104-3.601,4.297c0.504,0.416,0.883,1.468,1.531,1.628c0.622,0.148,1.664-0.574,3.08-3.945
							c-0.654,3.166-1.734,3.775-2.354,4.189c-0.655,0.42-0.896,0.63-0.457,3.064c1.347-2.726,3.756-5.67,4.068-6.158
							c-0.439,1.136-0.912,2.261-1.424,3.369c1.526-0.396,1.893-1.844,2.018-3.396C235.544,126.307,235.432,124.653,236.212,123.577
							z M236.609,85.177c-0.406-1.526-0.873-3.037-1.4-4.527c0.43,1.438,0.795,2.891,1.113,4.35L236.609,85.177z M142.635,55.974
							c0.402,0.261-0.336,1.607-1.359,2.876c-1.033,1.264-2.356,2.472-3.451,2.355C139.804,58.937,142.429,56.979,142.635,55.974z
							 M116.009,96.903c0.695-1.632,1.451-3.23,2.249-4.797c0.807,0.805,0.423,1.878-0.179,3.09
							c-0.604,1.207-1.426,2.568-1.539,3.799C115.357,99.585,116.449,97.867,116.009,96.903z M115.161,130.813
							c0.018,0.569,0.046,1.14,0.082,1.711c0.504-0.741,1.021-1.467,1.551-2.176L115.161,130.813z M117.327,128.042
							c1.072,0.803,0.875-2.6,0.677-3.367C117.749,125.782,117.521,126.904,117.327,128.042z M131.196,153.137
							c-0.472-0.479-0.928-0.976-1.382-1.476c-0.09,0.85-0.162,1.711-0.209,2.577L131.196,153.137z M127.496,151.907
							c0.37-0.587,0.928-1.095,0.975-1.863c0.047-0.772-0.428-1.762-2.024-3.496c-1.265,0.537-0.56,1.666-2.868,0.961
							c0.558,1.563,1.791,2.35,2.337,2.935c-0.445-1.014-1.62-1.792-1.018-2.528C126.288,149.165,127.199,150.73,127.496,151.907
							c-0.263,0.416-0.425,0.877-0.186,1.516C127.625,153.151,127.663,152.591,127.496,151.907z M117.921,136.964
							c-0.368-0.565-0.716-1.045-1.014-1.229l0.232-0.391C117.904,135.811,117.959,136.394,117.921,136.964
							c0.41,0.621,0.837,1.35,1.294,2.089c1.241,0.071,0.801-3.288,1.182-4.294c0.163,1.551-0.424,3.24,1.019,4.89
							c0.205-0.385,0.511-0.231,0.016-1.416c0.425,0.843,0.87,1.672,1.333,2.487c-0.047,1.792-0.476,2.074-1.163,1.551
							c-0.68-0.521-1.571-1.852-2.387-3.218c-0.27,0.002-0.605-0.12-1.092-0.581C117.788,138.054,117.895,137.51,117.921,136.964z
							 M128.229,158.956c-0.305-0.486-0.603-0.977-0.891-1.471c-0.234-0.941,0.47-0.833,0.53-1.279
							C129.034,157.727,130.283,160.101,128.229,158.956z M129.643,65.527c-0.422,1.088,2.204-0.1,3.602-2.156
							c0.124,0.707,0.26,1.412,0.404,2.107c-0.444-0.351-1.453,0.429-2.37,1.378c-0.92,0.946-1.739,2.057-1.946,2.247
							C127.544,68.88,129.208,67.703,129.643,65.527z M231.031,69.457c-0.659,0.959,0.096,2.62,0.953,4.297
							c0.867,1.669,1.824,3.381,1.85,4.136c-0.859-1.437-2.26-3.737-3.158-5.537C229.787,70.555,229.432,69.167,231.031,69.457z
							 M236.857,79.246c0.617,1.697,0.959,2.123-0.115,2.301c-0.145,0.954,0.842,2.117,0.648,3.078
							C235.484,81.629,237.134,81.322,236.857,79.246c-0.166-0.438-0.338-0.95-0.541-1.591
							C236.666,78.302,236.786,78.805,236.857,79.246z M182.712,40.083c-0.771-0.568-1.563-1.122-2.375-1.657
							c-1.288,0.023-2.573,0.086-3.854,0.188C178.605,38.999,180.686,39.491,182.712,40.083z M142.875,48.265
							c0.381,0.292-0.359,1.05-1.29,1.787c-0.935,0.732-2.064,1.458-2.568,1.566c0.953,0.754,3.196-1.141,5.24-2.296
							c0.311-0.083,0.751-0.297,1.387-0.694c-0.433,0.167-0.884,0.406-1.387,0.694c-0.883,0.248-0.709-0.595-0.935-0.945
							l0.812-0.937c-0.993,0.5-1.975,1.023-2.946,1.573L142.875,48.265z M106.562,109.646c0.726,2.761,0.4,3.034,0.023,4.851
							C106.125,113.905,106.078,111.451,106.562,109.646z M162.92,38.212c-2.15,0.877-1.475,1.178-0.648,1.405
							c0.834,0.241,1.824,0.443,0.488,1.099c0.738-0.243,1.482-0.469,2.232-0.687c-1.695,1.05-2.408,0.914-3.051,0.625
							c-0.639-0.285-1.189-0.719-2.428-0.139l1.668-0.758c1.07-1.517-2.905,0.054-3.525-0.647c0.952-0.579,2.709-1.02,4.004-1.172
							C162.959,37.781,163.783,37.876,162.92,38.212z M105.573,113.905c0.53,2.29,0.264,3.211-0.202,3.945
							c-0.453,0.73-1.092,1.254-1.112,2.673c-0.626-1.829-0.358-2.647,0.075-3.415C104.773,116.337,105.377,115.609,105.573,113.905
							z M135.063,48.4l0.095-0.36c-1.148,0.627-2.285,1.288-3.406,1.979l-0.083,0.378C132.787,49.699,133.918,49.033,135.063,48.4z"
							/>
						<path fill="#1072BA" d="M117.542,118.993c0.191,0.942,0.217,1.565,0.166,2.092C117.6,120.429,117.522,119.731,117.542,118.993
							z"/>
						<path fill="#1072BA" d="M231.904,90.966c0.315,0.02,0.537,0.311,0.727,0.729C232.445,91.677,232.219,91.499,231.904,90.966z"
							/>
						<path fill="#1072BA" d="M232.208,98.304l0.013,0.275c-0.031,0.063-0.063,0.156-0.09,0.231L232.208,98.304z"/>
						<path fill="#1072BA" d="M178.996,116.331c0.609-0.828,0.706-0.484,0.716,0.156c0.002,0.647-0.002,1.668,0.216,2.196
							C179.527,117.663,178.425,117.435,178.996,116.331z"/>
						<path fill="#1072BA" d="M181.952,125.794c-0.382-0.856-0.976-1.768-1.693-2.896c0.271,0.313,0.527,0.659,0.794,1.111
							c0.133,0.235,0.264,0.477,0.401,0.767C181.585,125.063,181.798,125.432,181.952,125.794z"/>
						<path fill="#1072BA" d="M177.697,118.503c0.896,1.819,1.813,3.224,2.562,4.396c-0.423-0.483-0.896-0.89-1.368-1.526
							C178.423,120.741,177.93,119.868,177.697,118.503z"/>
						<path fill="#1072BA" d="M205.924,119.447c-0.791,0.539-1.466,1.474-2.046,2.28l-0.993,1.436
							c0.945-1.404,1.133-2.181,1.066-2.433c-0.034-0.142-0.165-0.125-0.313-0.089c-0.18,0.084-0.424,0.266-0.651,0.408
							c-0.496,0.352-1.147,0.838-1.729,1.184c-0.586,0.348-1.1,0.567-1.301,0.52c1.417-1.077,2.253-1.672,3.076-1.967
							C203.9,120.384,204.736,120.228,205.924,119.447z"/>
						<path fill="#1072BA" d="M209.052,110.668c-0.067,0.73-0.146,1.429-0.112,1.989C208.843,111.93,208.917,111.29,209.052,110.668
							z"/>
						<path fill="#1072BA" d="M208.324,108.017c0.189-2.378,1.023-3.349,1.619-4.645c0.621,1.486,0.502,2.833,0.183,4.004
							c-0.322,1.183-0.833,2.203-1.074,3.292C209.227,108.921,209.273,107.209,208.324,108.017z"/>
						<path fill="#1072BA" d="M164.281,108.167c0.219-0.443,0.563-1.564,1.111-1.419c-0.346,1.105-0.635,2.229-0.863,3.368
							C163.926,111.436,164.18,108.886,164.281,108.167z"/>
						<path fill="#1072BA" d="M160.67,121.53c0.348,3.063,1.563,1.227,1.5,2.783l-1.92,0.206
							C160.352,123.507,160.492,122.511,160.67,121.53z"/>
						<path fill="#1072BA" d="M150.787,120.555l0.119-1.144c-0.01,0.422,0.006,0.844,0.014,1.301L150.787,120.555z"/>
						<path fill="#1072BA" d="M166.943,134.469c0.281-0.933,0.599-1.837,0.955-2.716
							C168.459,134.001,167.107,134.923,166.943,134.469z"/>
						<path fill="#1072BA" d="M174.9,141.622c-0.453-0.658-0.51-1-0.779-1.547c0.3,0.351,0.429,0.528,0.768,0.887l0.271,0.274
							l0.136,0.138l0.067,0.069l0.018,0.017c-0.031-0.024,0.073,0.062-0.072-0.058l0.002,0.001v0.002l0.004,0.004l0.006,0.008
							l0.029,0.027l0.457,0.457c0.613,0.604,1.245,1.195,1.905,1.752C176.752,143.03,175.749,142.3,174.9,141.622z"/>
						<path fill="#1072BA" d="M185.777,148.643l0.576-0.302c1.08,0.505,2.196,0.953,3.344,1.339
							C188.371,149.415,187.063,149.067,185.777,148.643z"/>
						<path fill="#1072BA" d="M192.896,47.846c-0.074-0.948,1.398-0.868,3.116-0.437c1.72,0.421,3.64,1.216,4.595,1.355
							c-1.02,0.814-2.111,0.184-3.412-0.448C195.908,47.682,194.396,47.049,192.896,47.846z"/>
						<path fill="#1072BA" d="M116.675,113.523c0.205-2.017,0.508-4.019,0.89-6c0.082,2.364,0.085,2.679-0.088,3
							C117.323,110.846,116.979,111.156,116.675,113.523z"/>
					</g>
				</g>
			</g>
		</g>
	</g>
	<g>
		<g>
			<g>
				<g>
					<g>
						<path fill="#272361" d="M190.124,99.333c1.431,0.174,1.258-0.063,0.347-0.485c-0.934-0.47-2.93-0.945-4.804-0.759
							c-1.034,0.605-1.905,1.365-2.615,2.181C185.191,99.146,187.746,98.789,190.124,99.333z"/>
						<path fill="#272361" d="M176.919,106.798c-0.528,2.775-0.229,5.552,0.595,8.007c-0.503-1.792-0.705-3.71-0.555-5.64
							c0.466-1.548,0.945-2.146,1.143-2.258c0.215-0.104,0.217,0.294,0.168,0.919c-0.133,1.222-0.175,3.495,0.006,4.571
							c-0.094-2.362,0.215-3.825,0.27-4.583c0.092-0.808,0.001-1.061-0.23-1.078C177.854,106.673,176.971,107.732,176.919,106.798z"
							/>
						<path fill="#272361" d="M180.166,121.751c0.738,1.016,1.395,1.58,1.834,1.891c0.441,0.313,0.691,0.359,0.768,0.277
							c0.151-0.176-0.334-0.899-0.896-1.705c-0.233,0.014-0.95-0.493-1.424-0.867C179.972,120.979,179.654,120.823,180.166,121.751z
							"/>
						<path fill="#272361" d="M207.604,47.933c1.283,0.857,2.762,1.872,2.426,1.944c0.785,0.333,1.285,0.506,1.043,0.254
							C210.826,49.889,209.867,49.164,207.604,47.933z"/>
						<path fill="#272361" d="M210.027,49.877l-1.015-0.419l0.909,0.452C210.027,49.937,209.988,49.887,210.027,49.877z"/>
						<path fill="#272361" d="M215.938,136.059c-1.56,1.849-3.063,3.014-4.598,4.019c-1.546,0.995-3.138,1.832-5.16,2.823
							c-0.906,0.003-1.801-0.04-2.675-0.112c-2.192,0.865-2.681,1.119-2.979,1.455c-0.312,0.299-0.44,0.642-2.158,1.164
							c-2.252,0.006-5.67,0.088-8.807-0.34c-0.781-0.109-1.548-0.219-2.267-0.367l-0.269-0.05l-0.066-0.013
							c-0.078-0.02,0.102,0.025,0.081,0.02l-0.005-0.001l-0.012-0.002l-0.02-0.004l-0.039-0.009l-0.156-0.035l-0.615-0.137
							c-0.282-0.074-0.517-0.117-0.82-0.206c-1.148-0.31-2.034-0.64-2.496-0.849c-1.086-0.978,1.843,0.08,2.564-0.065
							c-2.554-0.656-3.802-0.976-5.203-1.415c-0.696-0.234-1.426-0.523-2.322-1.038s-1.965-1.254-3.245-2.478l0.112-0.28
							c-3.271-2.64-6.147-6.435-8.053-10.927c-1.916-4.486-2.854-9.647-2.58-14.846c0.061-1.3,0.207-2.601,0.414-3.896l0.073-0.444
							l0.103-0.551c0.068-0.318,0.109-0.555,0.188-0.881c0.14-0.617,0.306-1.228,0.488-1.831c0.733-2.415,1.81-4.715,3.187-6.79
							c2.746-4.159,6.727-7.371,11.143-9.014c-1.229,0.354-0.995,0.063-1.542,0.047c2.347-0.991,4.914-1.562,7.534-1.61
							c2.615-0.046,5.339,0.387,7.684,1.366c4.811,1.959,8.663,6.33,10.561,11.369c1.916,5.027,2.062,10.746,0.484,15.476
							c-1.595,4.739-5.119,8.501-9.253,10.306c2.909-0.891,6.106-2.847,8.498-5.961c1.196-1.543,2.188-3.35,2.871-5.313
							c0.685-1.958,1.06-4.097,1.177-6.235c0.244-4.287-0.732-8.655-2.667-12.195c-1.907-3.559-4.751-6.227-7.556-7.597
							c-1.664-1.637-4.459-2.821-7.027-3.257c-2.588-0.5-4.852-0.454-5.859-0.923c-4.604,0.132-8.406,1.657-11.371,3.595
							c-2.978,1.964-5.188,4.364-6.928,6.975c-3.43,5.284-5.215,11.345-5.27,19.979c-0.143,2.472-0.66,1.293-1.125,2.041
							c-0.4-4.656-0.059-9.483,1.283-14.007c-1.064,2.688-1.719,5.548-2.105,8.445c-0.082-1.908,0.338-5.185,1.162-8.021
							c0.787-2.849,1.898-5.229,1.756-5.929c-2.736,5.926-4.204,14.309-3.114,22.299c0.519,3.984,1.671,7.825,3.237,11.107
							c1.559,3.291,3.533,6.006,5.465,7.924c-1.482-2.066-3.029-4.471-4.326-7.146c-1.295-2.672-2.342-5.609-2.918-8.566
							c-0.119-1.328-0.238-3.008-0.195-4.326c0.033-1.317,0.191-2.264,0.445-2.145c1.143,8.314,4.188,15.454,8.909,21.247
							c4.726,5.751,11.39,10.08,19.692,10.939c2.068,0.25,4.514,0.349,6.529,0.317c2.017-0.027,3.604-0.146,3.986,0.045
							c-2.722,0.539-0.586,0.691-2.861,1.156c3.018-0.49,3.065-1.058,3.479-1.476c0.204-0.22,0.488-0.445,1.235-0.712
							c0.746-0.277,1.957-0.592,3.97-1.233c-0.153,0.658-0.325,1.319-0.517,1.974c1.404-1.377,3.869-2.22,6.601-3.521
							c2.716-1.277,5.687-3.076,7.628-5.584c2.092-1.09-0.518,2.29-4.646,5.02c2.416-1.408,3.481-2.55,4.389-3.59
							c0.895-1.063,1.637-2.052,3.135-3.648c-0.58,1.35-1.242,2.688-1.988,4.005c1.332-2.121,2.803-3.601,4.246-4.865
							c1.438-1.257,2.84-2.285,3.805-3.317c-0.058-0.232-0.676,0.026-0.844-0.281c-0.183-0.317,0.148-1.141,1.646-3.719
							c1.37-2.179,1.082-0.857,1.544-1.303c-0.185-0.476,0.271-2.658,1.515-6.363c0.715-0.528-0.183,2.717,0.137,3.146
							c1.121-2.828,1.715-5.223,2.621-7.273c0.393-2.679,0.149-2.623-0.086-2.318c-0.265,0.304-0.562,0.838-0.533-0.791
							c0.849-3.971,1.18-4.158,1.666-3.649c0.453,0.497,0.895,1.695,1.606,0.216c-0.03,3.207-0.479,6.896-1.286,10.158
							c-0.781,3.27-1.842,6.085-2.447,7.758c1.727-3.873,2.942-7.896,3.691-12.058c0.104,0.205,0.317-0.173,0.567-0.758
							c0.256-0.671,0.532-1.472,0.759-2.151c0.445-1.333,0.814-1.964,0.537,1.387c1.396-6.175,1.682-13.298,0.679-20.165
							c-0.958-6.88-3.187-13.445-5.856-18.854c0.524,1.642,1.184,3.729,0.719,3.527c-1.264-2.819-1.807-4.07-1.952-4.845
							c-0.165-0.764,0.034-1.024-0.078-1.688c-1.231-1.972-2.065-2.672-2.799-3.159c-0.74-0.481-1.399-0.746-2.455-1.697
							c-2.222-4.083-3.942-6.162-5.521-8.087c-1.623-1.906-3.111-3.687-5.905-6.685l-0.226,1.083
							c-1.973-2.073-3.457-2.848-4.974-3.573c-1.539-0.711-3.104-1.412-5.728-2.974c-0.213-0.34,2.019,0.422,3.781,1.167
							c-2.459-1.188-3.522-1.866-4.582-2.565c-1.062-0.683-2.146-1.357-4.762-2.034c1.467,0.095,2.943,0.251,4.43,0.468
							c-2.041-0.839-4.58-1.596-6.443-2.126l-1.146-0.349c-0.3-0.101-0.532-0.196-0.677-0.284c-0.273-0.116-0.256-0.175-0.232-0.254
							c0.023-0.036,0.078-0.069,0.162-0.101l0.032-0.013l0.019-0.006l0.009-0.002l0.005-0.001l0.003-0.001h0.001
							c-0.059-0.015,0.08,0.02,0.066,0.015l0.076-0.021l0.187-0.041c-2.007-0.191-4.172-0.433-6.634-0.635
							c-2.44-0.198-5.088-0.332-7.793-0.303c-5.404,0.038-11.033,0.841-15.469,2.285l0.402-0.977
							c-2.254,1.04-6.521,2.256-10.519,4.008c-4.007,1.708-7.701,3.913-9.104,5.557l-0.78,0.085
							c-2.457,2.05-4.744,4.256-6.854,6.583c-3.231,2.737-3.023,0.88-3.042,1.354c-6.683,6.686-10.704,12.894-14.04,17.945
							c0.136,0.944-0.92,3.593-2.139,6.98c-1.237,3.382-2.586,7.53-3.506,11.273c-1.295,4.466-2.162,9.062-2.722,13.721
							c-0.551,4.665-0.737,9.411-0.511,14.157c0.443,9.484,2.587,19.004,6.629,27.607c4.015,8.601,9.978,16.234,17.288,21.771
							c7.284,5.575,15.828,8.938,24.217,10.069c2.5,0.429,5.546,0.433,8.68,0.101c3.144-0.33,6.342-0.993,9.365-1.694
							c-3.77,0.355-5.792,0.478-7.835,0.617c-2.034,0.105-4.081,0.233-7.755-0.236c-2.736-0.529-4.513-1.322-6.115-2.183
							c-1.6-0.868-3.037-1.817-5.027-2.989c0.602,0.584,1.223,1.16,1.867,1.719c-3.592-0.848-4.683-1.598-5.604-2.131
							c-0.916-0.58-1.666-0.985-4.415-2.066l1.016-1.211c-1.061-0.171-2.576-1.104-3.925-2.252c-1.356-1.146-2.536-2.496-3.16-3.334
							c-0.7-0.141-1.399-0.305-2.104-0.479c-2.873-3.627-4.415-6.191-4.444-7.857l-0.533,0.941
							c-0.286-0.851-2.817-4.396-4.314-7.547c-1.531-3.138-2.252-5.615-0.42-3.522c-0.731-1.078-1.713-1.966-2.595-4.707l0.782-0.74
							c-1.629-3.751-2.794-8.254-2.453-9.521c0.666,2.14,1.283,2.75,1.869,3.348c-0.967-4.146-1.418-6.479-1.908-7.816
							c-0.468-1.342-0.909-1.699-1.365-1.992c-0.447-0.297-0.909-0.527-1.33-1.682c-0.408-1.15-0.818-3.236-0.81-7.232l0.639,0.193
							c-0.212-1.342-0.393-2.695-0.542-4.059c0.351-1.401,0.734-2.789,1.15-4.162c-0.786-2.95,0-8.643,1.837-14.409
							c1.797-5.821,4.71-11.634,6.597-16.057c0.857-1.685,2.239-3.411,3.959-5.36l6.118-6.748l-1.036-0.333
							c1.16-0.893,2.995-2.477,5.305-4.198c2.306-1.725,5.099-3.573,8.026-5.097c2.92-1.536,5.965-2.743,8.622-3.456
							c2.657-0.718,4.911-0.964,6.266-0.777c4.627-2.101-0.567-0.082-0.694-0.821c4.631-1.946,7.391-2.151,9.462-2.099
							c2.093,0.093,3.589,0.505,6.136,0.769c3-0.208,1.869-0.32,0.361-0.466c-1.5-0.136-3.378-0.187-1.754-0.629
							c2.346,0.122,3.977,0.216,5.311,0.24c1.332,0.026,2.361-0.018,3.471-0.027c1.105-0.006,2.292,0.016,3.908,0.271l0.627,0.106
							l0.598,0.116c0.48,0.115,1.104,0.254,1.575,0.396c0.931,0.258,2.157,0.683,3.457,1.243c0.432,0.463-0.286,0.273-1.275,0.026
							c-0.489-0.137-1.062-0.264-1.569-0.38c-0.496-0.088-0.89-0.146-1.226-0.137c0.519,0.077,0.937,0.129,1.483,0.243
							c0.539,0.109,1.101,0.238,1.677,0.397c1.151,0.316,2.375,0.723,3.632,1.237c2.512,1.033,5.163,2.483,7.717,4.313
							c5.143,3.633,9.73,8.832,13.025,13.962c1.716,3.044,3.349,6.611,4.637,10.548c1.281,3.937,2.211,8.242,2.592,12.668
							c0.791,8.792-0.633,18.291-3.906,25.093l0.225,0.396c-1.631,2.779-3.219,5.627-5.201,8.385
							c-1.974,2.742-4.378,5.384-7.387,7.367C213.915,137.355,214.939,136.735,215.938,136.059z"/>
						<path fill="#272361" d="M163.398,93.345c-0.529,0.25-1.057,0.517-1.584,0.801c-1.525,2.643-2.652,5.468-3.389,8.354
							c0.886-1.61,1.428-2.843,2.063-4.24C161.129,96.874,161.863,95.309,163.398,93.345z"/>
						<path fill="#272361" d="M164.469,96.313c0.662-1.271,1.428-2.495,2.283-3.665c-1.532,1.766-2.846,3.718-3.912,5.792
							C163.354,97.702,163.898,96.992,164.469,96.313z"/>
						<path fill="#272361" d="M220.59,142.753l-0.917,0.605c-3.972,3.612-8.677,6.506-13.836,8.357
							C211.363,149.798,216.393,146.676,220.59,142.753z"/>
						<path fill="#272361" d="M208.556,47.471c1.958,0.521,4.298,2.161,6.136,3.106c-2.28-1.424-4.654-2.691-7.108-3.762
							C207.912,47.026,208.234,47.247,208.556,47.471z"/>
						<path fill="#272361" d="M135.034,55.529c-1.289,3.194-4.452,4.236-0.585,2.386C137.851,54.47,134.342,56.844,135.034,55.529z"
							/>
						<path fill="#272361" d="M124.707,70.582c1.597-2.218,2.362-3.545,3.128-4.867C125.045,68.157,125.625,68.768,124.707,70.582z"
							/>
					</g>
				</g>
			</g>
		</g>
	</g>
	<g>
		<g>
			<g>
				<g>
					<path fill="#141232" d="M284.674,88.729c1.16,1.755,1.85,2.778,2.907,4.832c1.888,1.415,4.601,2.645,6.866,4.055
						c2.291,1.408,4.02,3.026,4.56,5.115c-0.051,0.68-1.036,2.147-2.278,3.385c-1.227,1.234-2.713,2.23-3.184,1.881
						c-2.376-0.723-4.646-1.815-6.759-3.134c-2.119-1.316-4.104-2.852-6.097-4.439c-3.994-3.187-8.01-6.524-13.65-9
						c-0.942-0.811-4.895,2.065-8.807,3.386c0,0,0.937,0.87,2.102,1.749c-2.691,0.919-5.948,0.444-9.262-0.316
						c-3.324-0.758-6.695-1.798-9.912-1.912c1.014,1.347,1.018,1.344,1.543,2.479c-1.793-3.164-5.239-5.079-9.133-6.638
						c-3.892-1.547-8.248-2.755-11.762-4.162c-1.144-1.133-1.8-2.224-2.451-3.315c-3.326-0.931-6.267-2.537-9.362-4.12
						c-3.104-1.589-6.37-3.146-10.5-4.12c-3.041-1.036-6.142-3.197-9.285-5.668c-3.147-2.474-6.339-5.255-9.739-7.559l0.618,0.418
						l-2.175-1.75c-0.428-0.346-0.862-0.683-1.313-0.992c-4.344-4.449-8.269-9.917-13.045-14.173
						c-4.73-4.237-10.36-7.235-16.789-6.249c-2.149,0.317-4.86-1.2-6.434-4.99c-4.658,2.686-9.085,2.646-13.409,1.854
						c-4.304-0.808-8.612-2.355-12.435-3.061c-2.739-0.274-4.719-3.696-6.15-6.158c-3.913,1.953-7.546,4.182-10.927,6.365
						c-3.391,2.189-6.54,4.319-9.761,6.17c-4.01,2.593-7.617,5.688-11.216,8.998c-3.603,3.33-7.219,6.857-11.342,10.828
						c-1.081,1.145-1.363,4.31-0.757,6.125c-0.914,0.292-1.829,0.599-2.75,0.936c-1.058,3.017-0.969,6.226-0.82,9.104
						c0.145,2.905,0.33,5.478-0.648,7.945c-1.404,3.376-4.229,5.517-7.843,7.214c-3.594,1.688-7.94,2.789-11.951,3.913
						c-1.76-2.44-3.938-5.014-6.036-7.954c-2.095-2.933-4.107-6.233-5.473-9.917c-1.367-3.674-2.083-7.738-1.592-11.933
						c0.484-4.181,2.19-8.499,5.542-12.333c2.087-1.995,3.313-5.021,4.507-8.397c1.184-3.366,2.357-7.085,3.978-10.196
						c1.012-2.907,3.462-4.92,5.583-6.972c2.136-2.074,3.94-4.203,4.081-7.91c4.943-0.208,11.388-1.952,17.818-3.992
						c6.441-2.101,12.888-4.514,18.166-7.731c1.166,0.386,0.302,1.327,2.161,1.566c7.038-5.364,16.35-7.757,25.854-7.938
						c9.568-0.219,19.271,1.654,28.917,3.88c4.996,0.802,9.981,3.069,15.025,5.618c5.063,2.558,10.199,5.38,16.058,7.485
						c1.332,0.089,4.286,4.844,7.165,6.339c1.285,0.159,2.566,0.339,3.852,0.528c4.854,4.069,10.7,8.053,14.271,12.514l-0.945-0.809
						c1.209,1.267,2.206,2.586,2.872,4.021c3.815,5.704,9.286,7.982,13.203,12.191c2.969,3.187,7.952,5.617,12.705,8.004
						c4.767,2.414,9.302,4.787,11.788,8.688c0.623,0.991,3.625,1.396,5.457,2.015c0.666,0.948,1.352,1.888,2.056,2.832
						c1.899,0.593,3.949-2.359,5.781-1.859c5.931,1.985,12.85,3.082,19.03,4.568c6.181,1.51,11.733,3.515,14.959,8.019
						C287.066,84.713,282.852,85.945,284.674,88.729z"/>
					<path fill="#141232" d="M287.966,100.639c-1.271-0.604-1.841,0.906-1.772,1.895c1.513-0.603,3.256-0.933,4.676-2.584
						l-0.833,2.832c2.923,2.042,1.395-2.767,2.396-0.827c-0.148,0.396-0.312,0.771-0.496,1.094c-0.186,0.328-0.379,0.53-0.613,0.744
						c-0.476,0.441-1.045,0.499-1.758-0.093c0.217-0.042,0.36-0.147,0.453-0.258c0.092-0.098,0.137-0.229,0.17-0.379
						c0.064-0.308,0.086-0.75,0.315-1.204c-1.063-0.236-1.875-0.001-2.615,0.376l-1.069,0.588c-0.35,0.188-0.728,0.512-1.113,0.701
						l0.479-2.3l0.413-2.134C287.057,99.591,287.516,100.104,287.966,100.639z"/>
					<path fill="#141232" d="M292.384,92.937c-0.103,0.145-0.207,0.315-0.312,0.489c1.344,0.251,2.213-0.327,3.054-0.823
						c-1.021,1.145-2.07,1.238-3.108,1.08c-1.051-0.12-2.113-0.334-3.277,0.32c0.541,0.038,1.127-0.315,1.731-0.603
						C291.078,93.109,291.71,92.87,292.384,92.937z"/>
					<path fill="#141232" d="M298.227,97.139c-2.938,1.376-0.83,3.473-4.158,3.468l3.701-4.153L298.227,97.139z"/>
					<path fill="#141232" d="M293.977,96.919c-1.627,1.062-0.779,0.525-3.59,0.21l3.96,0.068L293.977,96.919z"/>
					<path fill="#141232" d="M209.21,74.798c1.3,2.691,2.147,5.418,5.551,7.588C211.033,80.682,209.622,75.688,209.21,74.798z"/>
					<path fill="#141232" d="M184.634,44.689c0.791-0.75,0.147-1.755,1.666-1.046c0.159,0.921-2.384,2.236,0.461,2.751
						L184.634,44.689z"/>
					<path fill="#141232" d="M186.139,38.583l0.059-2.538C185.979,36.27,185.855,37.367,186.139,38.583z"/>
					<path fill="#141232" d="M270.816,104.315l-0.242-0.615c-0.207,0.091-0.459,0.262-0.688,0.381
						C270.168,104.165,270.443,104.256,270.816,104.315z"/>
					<path fill="#141232" d="M264.549,101.906c1.405,0.937,2.833,1.853,4.277,2.748c0.392-0.27,0.711-0.393,1.062-0.573
						C266.949,103.19,268.162,101.396,264.549,101.906z"/>
					<path fill="#141232" d="M270.16,102.604l0.414,1.098c1.996-0.81,3.322-0.178,4.875,0.56c1.543,0.732,3.324,1.57,6.005,1.085
						C277.577,103.271,273.48,102.689,270.16,102.604z"/>
					<path fill="#141232" d="M274.714,100.56l1.552-1.248c1.313,0.365,1.172,1.448,1.1,1.985l2.777-0.384
						c0.568-1.063-1.252-1.759-3.5-2.292c-2.248-0.527-4.933-0.921-6.039-1.18C271.953,98.499,273.324,99.538,274.714,100.56z"/>
					<path fill="#141232" d="M298.833,81.775c-0.035,0.006-0.063,0.018-0.099,0.029l0.108-0.012
						C298.839,81.79,298.833,81.781,298.833,81.775z"/>
					<path fill="#141232" d="M291.736,76.435l-0.239,3.81c3.172-0.479,3.83,2.156,7.237,1.562c0.035-0.012,0.063-0.023,0.099-0.029
						C297.634,77.923,294.309,79.459,291.736,76.435z"/>
					<path fill="#141232" d="M259.873,97.284c3.641,0.656,6.406,1.008,7.724-1.018c-2.196-0.555-4.383-1.161-6.548-1.817
						C263.354,96.5,260.672,96.041,259.873,97.284z"/>
					<path fill="#141232" d="M255.542,89.176c1.024,0.137,2.052,0.262,3.077,0.375l-1.133-1.44
						C257.281,88.591,256.65,89.033,255.542,89.176z"/>
					<path fill="#141232" d="M257.486,88.11c0.228-0.557-0.113-1.169-1.197-1.556L257.486,88.11z"/>
					<path fill="#141232" d="M263.9,86.083c-1.535-2.755-1.797,0.266-5.008-0.928C258.197,87.806,262.25,85.826,263.9,86.083z"/>
					<polygon fill="#141232" points="250.496,82.298 249.91,80.147 249.012,82.727 					"/>
					<path fill="#141232" d="M222.521,85.116c4.021-0.808-0.815-3.103-0.504-4.495C222.166,82.117,222.332,83.616,222.521,85.116z"
						/>
					<path fill="#141232" d="M248.539,75.473l0.328,2.67l0.84-1.175c0.779,0.229,2.035,0.301,2.479,1.554
						C253.5,75.779,249.893,76.477,248.539,75.473z"/>
					<path fill="#141232" d="M234.693,77.715c-0.797-0.919-1.576-1.846-2.338-2.776"/>
					<path fill="#141232" d="M257.378,68.322c0.269-1.055-2.976-5.261,1.331-3.319c-1.684-0.687-4.169-1.104-2.146-2.809
						c-2.732-0.759-0.811,2.613-2.977,3.41C255.49,64.458,256.07,67.436,257.378,68.322z"/>
					<path fill="#141232" d="M250.972,64.242c-1.21-0.956-2.614-2.306-3.698-1.537C248.629,63.188,249.271,65.701,250.972,64.242z"
						/>
					<path fill="#141232" d="M251.428,57.793c0.403,0.9,0.821,1.802,1.253,2.698l-0.415-2.995L251.428,57.793z"/>
					<line fill="none" x1="217.386" y1="63.487" x2="215.766" y2="66.647"/>
					<path fill="#141232" d="M243.879,55.263c1.57,0.451,3.146,0.868,4.723,1.249c-1.232-0.935-2.439-1.891-3.623-2.866
						c-3.021,0.594-2.184,1.925-0.668,3.467C243.941,56.562,243.727,55.958,243.879,55.263z"/>
					<path fill="#141232" d="M247.441,61.311l1.746-0.539c0.231-0.596-1.929-1.231-3.58-2.395
						C246.632,59.382,247.548,60.387,247.441,61.311z"/>
					<path fill="#141232" d="M245.607,58.377l-1.297-1.266C244.637,57.586,245.079,58.011,245.607,58.377z"/>
					<path fill="#141232" d="M204.638,57.771c1.372,1.085,2.763,2.152,4.171,3.202C207.605,59.191,206.292,58.277,204.638,57.771z"
						/>
					<path fill="#141232" d="M241.691,51.038l-0.621-0.281l-1.205,2.448C241.365,53.287,241.449,51.527,241.691,51.038z"/>
					<path fill="#141232" d="M238.523,44.067c-0.379-2.024-3.322-1.446-4.345-1.719c0.484,2.458,2.114,3.03,3.64,4.421
						C236.291,45.371,238.009,45.025,238.523,44.067z"/>
					<path fill="#141232" d="M234.997,38.427c1.122,0.645,2.249,1.271,3.38,1.875C239.003,37.236,236.559,39.01,234.997,38.427z"/>
					<path fill="#141232" d="M228.938,36.355c-0.437,0.048-0.609,0.907-1.48,0.988c-0.049,1.271,1.398,1.542,2.105,2.298
						C229.341,38.546,229.134,37.448,228.938,36.355z"/>
					<path fill="#141232" d="M253.197,75.404c-1.422-0.26-2.703-0.451-3.937-0.645c1.724,1.125,3.501,2.16,5.318,3.133
						C254.136,76.985,253.732,76.054,253.197,75.404z"/>
					<path fill="#141232" d="M66.163,75.312c-1.869-2.312-2.4-5.499-2.125-8.604c0.256-3.112,1.301-6.085,2.057-8.219
						c2.024-3.053,3.399-7.071,5.379-11.306c1.946-4.21,4.544-8.611,8.119-11.739l0.554,0.942c3.383-1.427,6.721-3.685,10.41-5.789
						c3.662-2.104,7.692-4.026,11.676-4.802l-0.714-1.363c-1.408,0.03-3.221,0.437-2.586-1.721c2.023,0.184,4.655,0.449,5.356,1.488
						c0.37-0.764,0.757-1.526,1.162-2.282c1.357,1.027,0.876,5.909,3.89,4.21c0.787-2.603,2.729-1.763,4.304-0.98
						c1.591,0.772,2.883,1.472,3.128-1.657c0.567,1.907,1.623,2.091,2.792,1.874c1.162-0.219,2.452-0.833,3.264-0.613
						c-0.237-1-0.49-1.995-0.758-2.993c1.692,0.994,3.158,2.708,4.362,4.137c1.211,1.425,2.177,2.558,3.068,2.4
						c4.253,0.385,9.949,2.063,14.975,2.799c-0.338,3.449-4.65-1.946-3.141,2.398c5.349-1.073,10.25,2.132,14.681,6.077
						c4.496,3.959,8.584,8.618,14.094,10.991c-0.069-0.432-0.684-1.332,0.229-1.258c0.142,3.412,4.149,3.384,5.974,7.112
						c1.099-2.012-2.547-5.526-3.701-6.904c4.343-3.394-0.135,1.67,4.594,3.576c-0.063-0.441-0.197-1.328,0.197-1.707
						c4.4,2.39-0.811,3.767,2.537,5.6l-0.328-2.663c1.976,1.995,1.725,1.061,3.248,1.417l16.539,3.867l-15.426-2.915
						c0.516,0.097,1.221,0.317,2.266,0.766c-2.365,1.937-1.865,5.176-1.019,6.194c1.244-0.729,4.453,2.793,5.562,0.2
						c0.689,4.129,2.529,4.874,4.301,5.518c1.793,0.65,3.514,1.205,4.414,5.09c3.309-0.735-0.524-3.641,0.838-5.366
						c5.789,1.61-0.032,3.598,1.291,5.47c1.064,0.047,3.359,0.807,5.636,1.958c2.275,1.155,4.544,2.7,5.515,4.486l1.185-1.837
						c1.716,2.214,4.459,4.359,6.897,6.343c2.433,1.99,4.563,3.83,4.935,5.63c3.198-2.188-0.733-3.555-3.981-5.13
						c-0.002-1.811,3.75-1.226,5.133-0.031c-0.82-0.361-0.578-1.749-1.912-1.162c0.509-1.865,2.416,0.208,3.492,0.075
						c5.496,2.951-2.684,0.329-0.719,2.361c2.43,0.209,7.787,2.577,6.42-0.887c4.699,1.496,0.852,3.539,2.979,5.479
						c-1.563-1.568-2.973-1.453-4.276-1.372c-1.296,0.08-2.479,0.121-3.405-1.597c-1.324,0.625-1.283,1.537-0.365,2.796
						c2.107,0.434,4.886,1.876,7.291,2.793c2.4,0.924,4.39,1.331,4.717-0.135l1.543,2.479l2.563-1.52l0.715,0.773
						c-1.246-3.452-4.645-5.954-5.271-9.063c0.106-1.401,2.397-0.05,3.767,0.087l0.396,2.689c3.278,1.521,3.694-3.711,8.082-1.743
						c-1.769,1.243-0.755,2.71,1.149,4.198c1.897,1.492,4.682,2.95,6.229,4.326c2.267-2.512,2.26-3.625,2.22-4.632
						c-0.054-1.013-0.15-1.923,1.661-4.112c3.427,0.57,8.757-0.441,12.761,1.462c-4.898-0.253-3.793,0.767-2.396,2.099
						c1.381,1.308,3.091,2.886-1.043,3.64c1.694,0.696,3.135-0.014,4.877,0.092c1.251,4.451-2.683,3.385-0.403,6.807l0.82-2.959
						c2.393,2.317,3.925,5.675,8.662,6.604c0.549-1.354,2.818-3.223,4.753-2.373c0.327,1.096,0.58,1.85,1.228,2.338
						c0.635,0.489,1.717,0.707,3.401,0.763c1.563-1.439,1.862-2.618,1.592-3.69c-0.284-1.069-1.282-2.016-2.71-2.921
						c-2.818-1.807-7.342-3.495-8.176-6.112c-5.823-0.679-8.963-4.56-12.085-8.676c-3.152-4.153-6.368-8.46-12.722-10.886
						c-2.361,1.467-1.728,2.189-5.894,2.365c-1.854,2.072-0.579,3.38,1.504,4.564c2.075,1.19,4.921,2.189,6.056,3.89
						c-1.424,0.592-2.877,1.162-3.934,0.128l0.904,3.496c-3.62,0.163-4.369-1.291-4.969-2.671c-0.607-1.4-1.072-2.74-4.176-2.693
						l1.469-0.465c-1.193,0.075-2.394,0.133-3.596,0.174l0.645,0.746c-2.122-0.307-3.385,1.904-6.279-0.157
						c1.077-0.417,2.145-0.848,3.2-1.291c-2.194,1.044-1.651-2.775-4.409-2.556c1.741-0.781,2.578-2.207,3.436-2.018
						c-3.217-2.481-6.205-3.915-9.103-5.361c-10.894-2.289-20.081-8.517-27.347-16.355c0.123,0.64,0.359,1.282,0.479,1.595
						c-2.007-0.292-2.314-2.046-2.455-3.826c-1.307-1.521-2.566-3.089-3.767-4.702c-3.396-1.857-6.298-3.255-9.731-6.227
						l0.256,0.221l-0.763-0.825c0.94-1.353,1.578-1.524,2.138-1.163c-1.599-1.108-2.834-1.464-2.629,1.056
						c-2.673-1.92-2.629-4.152-4.406-5.84c2.006,0.517,4.015,1.07,6.021,1.659c-0.966-2.478-3.265,0.207-4.844-2.793
						c-4.359-2.586-0.167,3.572-2.289,4.969l-1.25-1.561l-0.648,3.896c-2.519-3.541-2.389-7.06-2.58-9.771l1.646,2.93
						c3.317-2.174-3.722-3.702-3.487-6.307l0.493,0.063c-3.772-3.146-0.349,2.18-3.229,0.503c-0.892-2.025-1.832-4.051-2.832-6.066
						l-0.618,2.625c-1.819-0.371-3.522-2.252-5.416-4.492c-1.884-2.237-3.976-4.832-6.333-6.581
						c-2.574-2.213-7.424-2.43-11.399-3.746c0.491,0.836,1.684,2.055,0.909,2.579c-2.164-1.142-7.17-3.064-4.435-4.822
						c-1.354,0.196-2.696,0.417-4.023,0.662c-1.196-0.362-1.994-1.108-2.578-1.887l0.549,1.38c-1.428-0.158-2.855-0.286-4.278-0.382
						c0.207-0.5-0.973-2.049,1.099-1.644c-1.856-2.075-4.69-2.167-7.799-1.977c-3.134,0.188-6.502,0.654-10.06-0.408
						c0.769-0.349,1.546-0.683,2.333-1.011c-2.297,0.727-3.404,0.041-4.619-0.687c-1.201-0.716-2.516-1.477-4.961-0.668l1.026,1.981
						c-1.717,0.419-4.143,0.056-6.099-0.547c-1.947-0.609-3.43-1.487-2.987-2.325c-0.054,2.457-0.562,2.134-1.3,1.763
						c-0.729-0.37-1.72-0.785-2.489,1.472c-0.877-1.382-1.791-2.753-2.741-4.106c-2.118,1.607-4.109,2.785-2.23,4.691
						c-3.801-1.318-6.863-0.892-7.895,2.479c0.004,0.054-0.02,0.098-0.052,0.138l-0.039,0.119l-0.019-0.07
						c-0.627,0.546-4.063,0.854-1.999,2.321c-3.652,1.246-4.973,0.719-6.307,0.147c-1.313-0.539-2.648-1.112-6.052,0.743
						l1.224,3.041c-2.71,0.965-4.928,2.857-6.637,5.008c-1.72,2.148-2.936,4.55-3.902,6.604l-2.151-1.802
						c-0.899,1.187-0.339,1.627,0.048,2.188c0.396,0.563,0.608,1.227-0.793,2.893c-0.773,0.041-1.756-0.22-2.178-0.831
						c-1.519,1.531-3.535,3.038-5.708,4.849c-2.168,1.809-4.495,3.926-6.529,6.551c-0.417-0.356-0.325-1.36-0.268-1.868
						c-1.629,2.432-3.172,6.971-3.887,10.315c-3.855,2.176-7.714,5.73-10.636,10.294c-2.932,4.541-4.886,10.086-5.184,15.607
						c2.744,4.649,6.262,8.104,10.03,10.314c3.772,2.224,7.776,3.22,11.696,3.289c2.469-0.904,4.945-2.825,7.509-5.079
						C60.788,80.46,63.446,77.863,66.163,75.312z"/>
				</g>
			</g>
		</g>
	</g>
	<g>
		<g>
			<g>
				<g>
					<path fill="#141232" d="M283.488,153.94c0.223,1.895,0.307,2.999,0.203,5.143c0.519,1.688,1.336,3.404,1.752,5.226
						c0.429,1.817,0.443,3.709-0.344,5.659c-0.373,0.57-1.582,1.568-2.582,2.423c-1.011,0.845-1.818,1.526-1.803,1.144
						c-0.689-2.015-0.928-5.279-1.878-8.678c-0.935-3.369-2.593-6.896-5.885-8.751c-0.294-0.349-0.929,0.31-1.632,1.338
						c-0.707,1.027-1.461,2.423-2.15,3.504l1.26,1.257c-0.949,1.412-2.257,1.699-3.732,2.012c-1.459,0.305-3.088,0.645-4.146,1.9
						c0.947,0.721,0.942,0.731,1.604,1.502c-1.92-2.061-4.074-2.127-6.065-1.293c-2.004,0.826-3.799,2.521-5.397,3.823
						c-0.502,0.002-0.979-0.05-1.447-0.129l-0.176-0.031l-0.088-0.017h-0.002l0,0c-0.854,0.622-0.238,0.172-0.429,0.311h-0.002
						h-0.007h-0.014l-0.024-0.003l-0.051-0.004l-0.405-0.038l-0.8-0.093c-3.899,4.099-9.113,5.688-13.472,11.491
						c-2.032,2.14-5.183,3.738-8.666,5.298c-3.487,1.563-7.297,3.078-10.782,5.176c-6.505,2.562-14.279,3.55-21.845,4.46
						c-7.603,0.956-14.951,1.779-21.813,5.301c-2.297,1.201-6.525,0.707-9.51-2.572c-2.102,1.912-4.51,3.049-6.908,3.668
						c-2.405,0.619-4.799,0.728-7.042,0.593c-4.492-0.284-8.478-1.501-11.971-2.044c-2.5-0.155-4.396-3.557-5.724-6.008
						c-6.948,3.947-13.499,8.412-20.894,11.041c-9.331,3.861-18.612,8.791-30.875,11.638c-1.651,0.474-3.956,3.054-4.8,4.972
						l-2.99-0.818c-6.153,3.773-9.957,10.4-16.201,12.271c-8.676,2.476-14.677-5.004-20.038-11.374
						c2.518-4.992,3.897-11.838,6.767-17.762c2.852-5.909,7.24-10.936,15.372-11.882c4.708-0.032,8.802-5.716,13.165-9.067
						c1.64-1.818,4.062-2.283,6.235-3.066c2.179-0.785,4.106-1.896,4.922-5.107c3.919,1.811,9.456,2.542,15.037,2.301
						c5.595-0.26,11.234-1.459,15.749-4.006c0.965,0.516,0.209,1.35,1.77,1.79c6.069-4.519,13.695-6.612,21.665-7.179
						c7.984-0.621,16.215,0.41,23.928,0.5c3.941-0.307,7.867,0.437,11.824,0.74c3.939,0.313,8.015,0.147,11.764-1.813
						c0.326-0.361,1.384-0.092,2.652,0.109c1.266,0.207,2.75,0.33,3.765-0.196c0.599-0.806,1.175-1.604,1.729-2.422
						c2.779-0.591,5.623-1.929,8.367-3.054c2.752-1.121,5.428-2.021,8.086-1.69c2.889-0.136,5.303-1.097,7.565-2.138
						c2.271-1.047,4.396-2.182,6.843-2.76c3.678-0.863,7.521-3.724,11.378-6.256l0.733-0.476l0.373-0.238l0.188-0.118l0.094-0.058
						l0.047-0.029c-0.303,0.222-0.08,0.06-0.146,0.106l0.008-0.004l0.012-0.008l0.024-0.018c0.533-0.354,1.069-0.689,1.613-1.005
						c1.088-0.629,2.196-1.17,3.313-1.584c2.232-0.826,4.502-1.136,6.646-0.646c1.063,0.239,3.217-1.469,4.896-2.082
						c1.047,0.332,2.073,0.688,3.086,1.078c1.59-0.521,1.601-4.076,3.389-4.529c2.891-0.539,5.965-1.013,9.054-1.143
						c3.084-0.136,6.181,0.088,8.978,0.801c5.623,1.401,9.869,4.83,10.521,9.887c-0.476,0.168-1.522,0.314-2.367,0.834
						C283.904,151.563,283.292,152.439,283.488,153.94z"/>
					<path fill="#141232" d="M291.998,182.32c-0.66,0.148-1.018,0.407-1.174,0.651c-0.082,0.123-0.104,0.242-0.096,0.352
						c0.006,0.055,0.021,0.105,0.047,0.151c0.01,0.005,0.028,0.003,0.059,0c0.684-0.168,1.341-0.631,1.982-1.037
						c0.637-0.433,1.219-0.925,1.611-1.558c0.037,0.479,0.061,0.966,0.059,1.423c1.559-0.359,1.791-0.439,1.656-0.857
						c-0.111-0.332-0.449-0.577,0.299-0.37c-0.016,0.225-0.058,0.442-0.129,0.644c-0.053,0.06-0.111,0.114-0.18,0.17l-0.107,0.079
						c-0.033,0.041-0.057,0.135-0.09,0.193c-0.261,0.527-0.755,0.805-1.635,0.646c0.182-0.125,0.271-0.252,0.311-0.39
						c0.051-0.09,0.074-0.086,0.069-0.127c0.017-0.012-0.116-0.268-0.028-0.508c-1.039,0.317-1.715,0.719-2.295,1.111
						c-0.275,0.234-0.598,0.271-0.884,0.4c-0.081,0-0.133,0.106-0.19,0.194l-0.176,0.261c-0.121,0.172-0.246,0.338-0.384,0.498
						l-0.138-0.576c-0.033-0.133-0.021-0.107-0.021-0.112l0.012-0.015c0.017,0.018-0.004-0.072-0.016-0.142l-0.039-0.21
						c-0.055-0.279-0.115-0.563-0.188-0.844C290.886,182.325,291.441,182.313,291.998,182.32z"/>
					<path fill="#141232" d="M293.271,176.434l-0.012,0.582c1.26-0.521,1.75-1.377,2.178-2.3c-0.248,1.56-1.172,2.056-2.107,2.52
						c-0.951,0.448-1.941,0.883-2.661,1.926C291.645,178.665,292.053,177.009,293.271,176.434z"/>
					<path fill="#141232" d="M300,176.146c-1.02,1.121-0.91,1.637-0.9,2.109c0.008,0.466-0.09,0.863-1.589,1.56
						c0.7-1.187,1.319-2.469,1.837-3.832L300,176.146z"/>
					<path fill="#141232" d="M285.527,163.566c-1.194,0.588-0.568,0.28-1.717-0.594c0.602,0.291,1.19,0.603,1.77,0.935
						L285.527,163.566z"/>
					<path fill="#141232" d="M239.35,173.928c2.637,0.342,5.129,1.077,8.036-0.403C244.745,175.491,240.222,174.05,239.35,173.928z"
						/>
					<path fill="#141232" d="M206.337,179.771c-0.329-1.04-1.396-0.959-0.242-1.938c0.819,0.289,0.998,3.129,2.484,0.848
						L206.337,179.771z"/>
					<path fill="#141232" d="M201.966,175.462l-1.916-1.404C200.135,174.359,200.911,175.061,201.966,175.462z"/>
					<path fill="#141232" d="M274.928,168.654l-0.064-0.601c-0.069,0.104-0.152,0.285-0.228,0.42
						C274.727,168.538,274.811,168.616,274.928,168.654z"/>
					<path fill="#141232" d="M272.77,166.804c0.568,0.753,1.08,1.525,1.534,2.313c0.118-0.298,0.22-0.438,0.332-0.643
						C273.699,167.803,273.992,165.891,272.77,166.804z"/>
					<path fill="#141232" d="M274.736,166.981l0.125,1.072c0.68-0.911,1.136-0.307,1.551,0.424c0.433,0.732,0.811,1.574,1.708,1.247
						C277.363,167.452,275.867,166.858,274.736,166.981z"/>
					<path fill="#141232" d="M276.498,164.798c0.236-0.414,0.482-0.823,0.738-1.23c0.498,0.393,0.285,1.463,0.188,1.993
						c0.364-0.092,0.735-0.183,1.108-0.259c0.423-1.006-0.166-1.83-1.063-2.412c-0.887-0.587-2.049-0.896-2.533-1.084
						C275.527,162.788,276.048,163.788,276.498,164.798z"/>
					<path fill="#141232" d="M295.521,151.788c-0.027-0.01-0.055-0.012-0.084-0.016l0.082,0.034
						C295.518,151.803,295.518,151.792,295.521,151.788z"/>
					<path fill="#141232" d="M292.688,144.282l-1.729,3.399c1.28,0.313,1.747,1.166,2.211,1.997
						c0.467,0.841,0.928,1.658,2.269,2.094c0.03,0.004,0.058,0.006,0.084,0.016c0.543-1.904,0-2.892-0.74-3.83
						C294.031,147.017,293.102,146.138,292.688,144.282z"/>
					<path fill="#141232" d="M270.376,163.001c1.604-0.069,2.706,0.009,3.192-2.141c-1.026-0.337-2.098-0.627-3.211-0.851
						C271.746,161.597,270.445,161.63,270.376,163.001z"/>
					<path fill="#141232" d="M266.383,156.284c0.568-0.175,1.141-0.338,1.713-0.482c-0.322-0.365-0.654-0.725-0.994-1.079
						C267.123,155.235,266.906,155.825,266.383,156.284z"/>
					<path fill="#141232" d="M267.102,154.722c-0.031-0.592-0.394-1.087-1.13-1.125
						C266.357,153.968,266.732,154.339,267.102,154.722z"/>
					<path fill="#141232" d="M270.434,151.29c-1.502-2.386-1.099,0.563-3.336,0.234c0.153,1.354,0.688,1.292,1.336,0.896
						C269.079,152.026,269.876,151.304,270.434,151.29z"/>
					<path fill="#141232" d="M261.042,151.808c-0.435-0.547-0.877-1.092-1.329-1.626l0.688,2.637L261.042,151.808z"/>
					<path fill="#141232" d="M252.188,169.154c0.246-3.024-2.396-1.415-3.389-2.364
						C249.951,167.555,251.081,168.345,252.188,169.154z"/>
					<path fill="#141232" d="M256.498,146.868c0.544,0.688,1.076,1.379,1.599,2.079l-0.059-1.405
						c0.616-0.184,1.507-0.705,2.364,0.215C260.066,144.743,257.881,146.976,256.498,146.868z"/>
					<path fill="#141232" d="M250.551,156.657c-0.953-0.131-1.917-0.229-2.896-0.311"/>
					<path fill="#141232" d="M260.007,136.391c-0.083-0.545-1.41-1.376-2.106-2.086c-0.691-0.698-0.713-1.367,1.965-1.5
						c-2.051,0.106-4.803,1.121-3.605-1.438c-1.641,0.416-1.486,1.102-1.158,1.889c0.334,0.795,0.826,1.715,0.024,2.645
						C256.314,133.866,258.438,136.159,260.007,136.391z"/>
					<path fill="#141232" d="M251.961,136.313c-1.65-0.03-3.811-0.077-4.184,1.26C249.275,136.96,251.375,138.521,251.961,136.313z"
						/>
					<path fill="#141232" d="M248.249,130.962c1.022,0.402,2.03,0.824,3.021,1.269c-0.771-0.709-1.553-1.397-2.354-2.086
						L248.249,130.962z"/>
					<line fill="none" x1="232.956" y1="161.558" x2="234.971" y2="164.482"/>
					<path fill="#141232" d="M239.324,135.154c1.681-1.069,3.422-2.081,5.214-3.036c-1.874,0.297-3.743,0.659-5.603,1.086
						c-2.108,3.027-0.197,3.016,2.237,2.756C240.436,135.907,239.77,135.716,239.324,135.154z"/>
					<path fill="#141232" d="M246.949,136.43c0.378-0.548,0.767-1.095,1.166-1.638c-0.196-0.612-2.606,0.428-4.873,0.959
						C244.878,135.618,246.398,135.677,246.949,136.43z"/>
					<path fill="#141232" d="M243.242,135.751c-0.698,0.053-1.402,0.135-2.068,0.209
						C241.82,135.997,242.518,135.917,243.242,135.751z"/>
					<path fill="#141232" d="M223.818,169.15c1.362-0.604,2.718-1.228,4.065-1.864C226.004,167.391,224.802,168.027,223.818,169.15z
						"/>
					<path fill="#141232" d="M233.9,134.685l-0.746,0.439l1.263,2.424C235.607,136.214,234.156,135.171,233.9,134.685z"/>
					<path fill="#141232" d="M224.838,134.626c-0.072-0.013-0.145-0.021-0.215-0.025l-0.105-0.005l-0.054-0.001l-0.026,0.001h-0.014
						h-0.006h-0.002c1.146-0.836,0.316-0.231,0.572-0.418l-0.004-0.001c-0.115-0.016-0.229-0.02-0.338-0.012
						c-0.22,0.017-0.424,0.078-0.615,0.172c-0.406,0.205-0.664,0.471-0.918,0.81c-0.504,0.671-0.897,1.554-1.219,1.904
						c1.135,0.427,2.026,0.354,2.813,0.149c0.391-0.101,0.77-0.244,1.224-0.438l0.673-0.271l0.01-0.005l0.007-0.002l0.003-0.001
						c-1.02,0.743-0.281,0.206-0.508,0.371v-0.001l0.027-0.013l0.055-0.025l0.106-0.05l0.22-0.101l0.447-0.191
						c-0.305,0.124-0.558,0.204-0.77,0.246l-0.15,0.025l-0.018,0.002h-0.002c1.023-0.748,0.283-0.207,0.512-0.375h-0.001h-0.004
						h-0.007l-0.029-0.002l-0.057-0.005c-0.071-0.008-0.138-0.021-0.195-0.044c-0.234-0.083-0.367-0.262-0.455-0.488
						c-0.043-0.113-0.076-0.239-0.104-0.371l-0.041-0.203l-0.021-0.103l-0.011-0.052l-0.006-0.025l-0.002-0.014l-0.002-0.007v-0.003
						v-0.002v-0.001c-0.246,0.179,0.547-0.4-0.551,0.399C225.025,135.157,224.979,134.86,224.838,134.626z"/>
					<path fill="#141232" d="M218.922,134.394l3.063-1.872C219.713,130.401,220.082,133.376,218.922,134.394z"/>
					<path fill="#141232" d="M214.693,138.452c-0.127,0.389,0.527,0.957,0.266,1.724c1.047,0.668,1.829-0.407,2.749-0.622
						L214.693,138.452z"/>
					<path fill="#141232" d="M259.697,144.56c-1.156,0.406-2.155,0.869-3.096,1.34c1.769,0.053,3.487,0.145,5.168,0.299
						C261.085,145.555,260.388,144.893,259.697,144.56z"/>
					<path fill="#141232" d="M66.479,232.808c1.781-6.479,9.28-11.623,13.271-14.624c3.712-1.688,7.219-4.759,10.895-7.965
						c3.666-3.203,7.521-6.539,11.676-8.688l0.31,1.049c3.634-0.563,7.352-2.15,11.139-3.737c3.777-1.593,7.641-3.171,11.298-3.789
						l-0.636-1.388c-1.285-0.029-2.957,0.256-2.322-1.851c1.834,0.313,4.203,0.662,4.837,1.714l1.033-2.253
						c1.215,1.04,0.849,5.931,3.54,4.229c0.655-2.603,2.387-1.789,3.81-1.06c1.436,0.728,2.616,1.355,2.702-1.778
						c0.578,1.879,1.526,2.006,2.555,1.715c1.023-0.293,2.139-1.002,2.879-0.852l-0.849-2.921c3.117,1.72,5.638,6.29,7.299,5.755
						c2.045-0.063,4.557,0.064,7.299,0.125c2.738,0.061,5.723,0.037,8.497-0.384c0.449,1.718-0.987,1.58-2.104,1.468
						c-1.111-0.111-1.951-0.183-0.443,1.721c5.441-2.436,11.877-1.192,19.279-0.631c7.32,0.615,15.487,0.346,21.488-3.303
						c-0.451-0.154-1.707-0.109-1.015-0.857c1.644,0.838,3.137,0.345,4.737-0.367c1.609-0.715,3.318-1.646,5.586-1.749
						c-0.705-0.904-2.353-0.884-4.088-0.632c-1.734,0.257-3.574,0.736-4.574,0.879c-0.24-2.766,0.104-2.51,1.102-1.99
						c0.983,0.518,2.665,1.295,4.816-0.461c-0.448-0.13-1.35-0.402-1.496-0.93c4.336-2.979,3.189,2.361,6.508-0.063l-2.693-0.717
						c3.58-1.386,0.856-1.181,4.219-4.032c0.693,2.961,3.584,4.107,4.755,3.879c-0.128-1.412,3.971-2.427,2.213-4.615
						c3.669,1.42,4.933,0.236,6.078-0.925c1.157-1.175,2.206-2.337,5.698-1.146c0.521-3.082-3.164-1.379-4.119-3.35
						c3.293-3.965,2.941,1.813,4.925,1.657c0.829-1.687,5.495-5.976,9.009-5.61l-1.074-1.896c1.189-0.089,2.449-0.373,3.721-0.725
						l1.91-0.571l0.449-0.129l0.223-0.064l0.111-0.032l0.057-0.016c-0.396,0.289,0.543-0.396,0.447-0.325h0.002l0.006-0.002
						l0.012-0.002l0.021-0.004l0.696-0.133c1.841-0.32,3.499-0.297,4.729,0.746c-0.762-3.29-2.515-2.091-4.209-1.031
						c-1.321-1.106-0.135-3.123,1.027-3.131c-0.431,0.245-1.345-0.804-1.234,0.396c-1.2-1.514,0.707-1.354,0.892-2.067
						c3.409-1.177-0.476,1.78,1.401,2.026c0.684-1.33,3.713-2.396,1.211-4.246c1.226-0.707,1.813-0.119,2.313,0.666
						c0.499,0.793,0.934,1.783,1.777,2.041c-1.327-0.508-1.696,0.324-1.988,1.049c-0.303,0.734-0.538,1.369-1.85,0.652
						c0.082,1.187,0.695,1.778,1.671,2.207c0.728-0.813,2.247-1.115,3.358-1.453c1.115-0.353,1.869-0.789,1.279-2.174
						c0.553,0.489,1.087,0.993,1.605,1.504c0.031-0.762,0.078-1.529,0.146-2.295l0.556,0.424c-1.802-2.662-4.265-3.316-6.194-5.49
						c-0.724-1.188,0.942-1.217,1.598-1.692c0.496,0.702,0.979,1.401,1.454,2.117c1.007-0.015,0.973-1.191,1.089-2.382
						c0.106-1.18,0.384-2.383,1.872-2.258c-0.434,1.758,0.65,2.703,1.962,3.531c1.326,0.822,2.897,1.57,3.792,2.631
						c0.52-2.877,0.428-3.959,0.219-4.941c-0.181-0.979-0.461-1.862,0.26-4.328c1.059-0.021,2.388-0.4,3.8-0.49
						c1.403-0.093,2.887,0.123,4.003,1.176c-2.968-0.386-2.281,0.734-1.583,2.027c0.719,1.335,1.312,2.893-0.763,3.634
						c0.775,0.673,1.523-0.003,2.377,0.193c-0.043,2.231-0.487,3.03-0.807,3.724c-0.334,0.688-0.541,1.264-0.357,2.992
						c0.244-0.968,0.5-1.932,0.768-2.893c0.635,2.433,0.432,5.771,1.534,7.156c0.55-1.24,1.993-2.674,2.369-1.537
						c-0.644,2.14-0.86,2.904,0.241,3.65c1.232-0.949,2.029-1.854,2.424-2.863c0.4-1.002,0.408-2.093,0.197-3.24
						c-0.377-2.31-1.779-4.758-1.42-7.381c-2.705-1.664-3.633-5.651-5.537-9.89c-0.945-2.103-2.125-4.235-3.893-5.979
						c-1.76-1.733-4.136-3.094-7.3-3.424c-0.837,1.033-1.038,1.678-1.466,2.241c-0.42,0.572-1.064,1.048-2.639,1.886
						c-0.592,2.604,0.883,3.274,2.668,3.746c1.804,0.463,4.016,0.803,5.045,2.289c-0.854,0.834-1.61,1.695-2.521,0.957
						c0.467,1.051,0.911,2.112,1.33,3.176c-1.996,0.953-2.764-0.137-3.564-1.271c-0.779-1.112-1.584-2.259-3.414-1.028l0.692-0.979
						c-0.698,0.51-1.378,1.038-2.036,1.581l0.688,0.393c-1.348,0.628-0.92,3.028-3.354,2.668c0.303-0.87,0.633-1.729,0.988-2.598
						c-0.621,1.897-2.328-1.572-3.7,0.091c0.456-1.555,0.175-3.152,0.785-3.449c-3.287-0.357-5.96,0.463-8.438,1.43
						c-1.781,1.449-3.549,2.813-5.336,4.125l-1.345,0.972l-0.726,0.509l-0.713,0.462c-0.961,0.611-1.945,1.188-2.947,1.724
						c-4.01,2.149-8.336,3.723-12.832,4.795c0.568,0.215,1.18,0.337,1.479,0.395c-0.934,1.508-2.481,0.899-3.994,0.141
						c-1.698,0.332-3.412,0.61-5.135,0.815c-2.871,2.054-5.111,3.929-9.207,5.312c-0.842-1.409-0.816-2.034-0.4-2.356
						c-1.245,0.883-1.887,1.774,0.185,2.733c-2.282,1.455-4.03,0.318-5.856,0.906c1.045-1.384,2.039-2.783,2.99-4.199
						c-2.111-0.394-0.713,2.879-3.459,2.635c-1.647,1.086-1.028,1.602,0.097,2.146c1.118,0.547,2.75,1.074,2.958,2.299l-1.662,0.258
						c0.938,0.848,1.895,1.68,2.865,2.502c-3.85,0.436-6.489-1.709-8.463-3.17c0.916,0.146,1.84,0.273,2.772,0.387
						c-0.175-1.938-1.194-1.706-2.397-1.255c-1.201,0.458-2.625,1.125-3.445,0.181l0.252-0.328c-3.701,0.75,1.298,1.689-1.114,2.729
						c-1.757-0.682-3.453-1.432-5.078-2.244l1.198,2.326c-1.171,0.982-3.247,0.73-5.465,0.08c-2.23-0.645-4.577-1.688-6.689-2.09
						c-2.369-0.676-5.72,1.148-9.062,1.172c0.545,0.634,1.745,1.363,1.288,2.119c-1.948-0.264-6.258-0.764-4.408-3.203l-3.061,1.662
						c-1.016-0.07-1.764-0.635-2.329-1.271l0.62,1.23l-3.555,0.451c0.113-0.527-1.006-1.84,0.729-1.807
						c-1.726-1.7-4.022-1.35-6.6-0.781c-2.589,0.568-5.405,1.355-8.453,0.538l1.913-1.18c-1.892,0.903-2.86,0.284-3.91-0.37
						c-1.041-0.648-2.17-1.336-4.196-0.441l0.934,1.94c-1.433,0.491-3.496,0.188-5.16-0.396c-1.658-0.59-2.92-1.482-2.566-2.315
						c0.008,2.454-0.428,2.13-1.056,1.751c-0.622-0.38-1.455-0.809-2.073,1.422c-0.757-1.4-1.538-2.798-2.342-4.184
						c-1.746,1.521-3.422,2.56-1.843,4.567c-3.204-1.519-5.728-1.393-6.692,1.82c0.002,0.054-0.019,0.095-0.047,0.131l-0.036,0.113
						l-0.014-0.072c-0.543,0.483-3.464,0.353-1.775,2.056c-3.166,0.752-4.267-0.015-5.351-0.789
						c-1.075-0.759-2.136-1.514-5.131-0.451l0.744,3.189c-4.806,0.702-8.264,4.967-10.75,8.131l-1.459-2.383
						c-1.98,1.564,1.453,2.368-1.755,4.385c-0.671-0.244-1.438-0.849-1.644-1.561c-3.288,1.609-8.363,2.175-13.473,4.4
						c-0.205-0.506,0.218-1.283,0.433-1.677c-2.099,1.202-4.998,3.99-7.008,6.136c-7.807-1.164-17.571,0.694-24.482,5.929
						c-2.199,9.149-1.512,18.059,2.198,24.978C49.248,232.317,57.435,233.309,66.479,232.808z"/>
				</g>
			</g>
		</g>
	</g>
</g>
</svg>
