<?xml version="1.0" encoding="utf-8"?>
<!-- Generator: Adobe Illustrator 15.1.0, SVG Export Plug-In . SVG Version: 6.00 Build 0)  -->
<!DOCTYPE svg PUBLIC "-//W3C//DTD SVG 1.1//EN" "http://www.w3.org/Graphics/SVG/1.1/DTD/svg11.dtd">
<svg version="1.1" id="Layer_1" xmlns="http://www.w3.org/2000/svg" xmlns:xlink="http://www.w3.org/1999/xlink" x="0px" y="0px"
	 width="40px" height="40px" viewBox="0 0 40 40" enable-background="new 0 0 40 40" xml:space="preserve">
<path fill="#b0e0e8" fill-rule="evenodd" clip-rule="evenodd" d="M20,24.284c2.365,0,4.284-1.919,4.284-4.283c0-2.366-1.919-4.285-4.284-4.285
	c-2.365,0-4.283,1.918-4.283,4.285C15.716,22.365,17.634,24.284,20,24.284 M20,25.386c2.974,0,5.387-2.411,5.387-5.385
	c0-2.975-2.413-5.387-5.387-5.387s-5.386,2.412-5.386,5.387C14.613,22.975,17.025,25.386,20,25.386z M20,32.269
	c6.774,0,12.268-5.494,12.268-12.27c0-6.772-5.494-12.267-12.268-12.267c-6.773,0-12.268,5.494-12.268,12.267
	C7.732,26.774,13.226,32.269,20,32.269z M18.13,39.515h3.739l1.453-4.095l3.054-0.991l3.582,2.459l3.025-2.197l-1.231-4.168
	l1.888-2.598l4.343-0.117l1.155-3.555l-3.445-2.647v-3.211l3.445-2.646l-1.155-3.556l-4.343-0.117l-1.888-2.597l1.231-4.167
	l-3.025-2.198l-3.582,2.458L23.322,4.58l-1.453-4.094H18.13L16.677,4.58l-3.053,0.992l-3.583-2.458L7.017,5.311l1.231,4.167
	L6.36,12.075l-4.343,0.117l-1.155,3.556l3.445,2.646v3.211l-3.445,2.647l1.155,3.555l4.343,0.117l1.887,2.598L7.017,34.69
	l3.025,2.197l3.583-2.459l3.053,0.991L18.13,39.515z"/>
</svg>
