<?xml version="1.0" encoding="utf-8"?>
<!-- Generator: Adobe Illustrator 15.0.2, SVG Export Plug-In . SVG Version: 6.00 Build 0)  -->
<!DOCTYPE svg PUBLIC "-//W3C//DTD SVG 1.1//EN" "http://www.w3.org/Graphics/SVG/1.1/DTD/svg11.dtd">
<svg version="1.1" id="Layer_1" xmlns="http://www.w3.org/2000/svg" xmlns:xlink="http://www.w3.org/1999/xlink" x="0px" y="0px"
	 width="64px" height="64px" viewBox="0 0 64 64" enable-background="new 0 0 64 64" xml:space="preserve">
<g>
	<path fill="#0E0A32" d="M31.942,0c8.951,0,16.572,3.125,22.855,9.372c3.01,3.009,5.295,6.448,6.855,10.314
		c1.563,3.867,2.346,7.971,2.346,12.314c0,4.381-0.771,8.486-2.313,12.313c-1.543,3.828-3.82,7.211-6.828,10.146
		c-3.123,3.085-6.666,5.447-10.629,7.086C40.27,63.182,36.171,64,31.944,64c-4.229,0-8.276-0.809-12.145-2.43
		c-3.866-1.617-7.333-3.961-10.4-7.026s-5.4-6.522-7-10.372C0.801,40.323,0.001,36.268,0.001,32c0-4.229,0.809-8.295,2.428-12.2
		c1.619-3.905,3.972-7.4,7.057-10.486C15.581,3.106,23.066,0,31.942,0z M32.058,5.772c-7.313,0-13.467,2.553-18.458,7.657
		c-2.515,2.553-4.448,5.419-5.8,8.6c-1.354,3.181-2.029,6.505-2.029,9.972c0,3.429,0.675,6.733,2.029,9.913
		c1.353,3.184,3.285,6.021,5.8,8.516c2.514,2.496,5.351,4.399,8.515,5.715c3.161,1.314,6.476,1.974,9.943,1.974
		c3.428,0,6.75-0.665,9.973-1.999c3.221-1.335,6.121-3.26,8.715-5.771c4.988-4.875,7.482-10.99,7.482-18.345
		c0-3.543-0.646-6.895-1.941-10.057c-1.293-3.162-3.182-5.98-5.654-8.458C45.484,8.344,39.296,5.772,32.058,5.772z M31.657,26.687
		l-4.287,2.229c-0.458-0.951-1.019-1.619-1.685-2c-0.667-0.38-1.286-0.571-1.858-0.571c-2.856,0-4.286,1.885-4.286,5.657
		c0,1.714,0.362,3.084,1.085,4.113c0.724,1.029,1.791,1.544,3.201,1.544c1.867,0,3.181-0.915,3.943-2.743l3.941,2
		c-0.838,1.563-2,2.791-3.484,3.686c-1.484,0.896-3.125,1.344-4.916,1.344c-2.857,0-5.163-0.875-6.915-2.629
		c-1.752-1.752-2.628-4.188-2.628-7.313c0-3.048,0.886-5.466,2.657-7.257c1.771-1.79,4.009-2.686,6.715-2.686
		C27.104,22.058,29.942,23.601,31.657,26.687z M50.113,26.687l-4.229,2.229c-0.457-0.951-1.021-1.619-1.686-2
		c-0.67-0.38-1.309-0.571-1.914-0.571c-2.857,0-4.287,1.885-4.287,5.657c0,1.714,0.361,3.084,1.086,4.113s1.789,1.544,3.201,1.544
		c1.863,0,3.18-0.915,3.939-2.743l4,2c-0.875,1.563-2.058,2.791-3.541,3.686c-1.486,0.896-3.104,1.344-4.855,1.344
		c-2.896,0-5.209-0.875-6.939-2.629c-1.736-1.752-2.604-4.188-2.604-7.313c0-3.048,0.885-5.466,2.656-7.257
		c1.771-1.79,4.01-2.686,6.713-2.686C45.618,22.058,48.438,23.601,50.113,26.687z"/>
</g>
</svg>
