<?xml version="1.0" encoding="utf-8"?>
<!-- Generator: Adobe Illustrator 15.0.2, SVG Export Plug-In . SVG Version: 6.00 Build 0)  -->
<!DOCTYPE svg PUBLIC "-//W3C//DTD SVG 1.1//EN" "http://www.w3.org/Graphics/SVG/1.1/DTD/svg11.dtd">
<svg version="1.1" id="Layer_1" xmlns="http://www.w3.org/2000/svg" xmlns:xlink="http://www.w3.org/1999/xlink" x="0px" y="0px"
	 width="64px" height="64px" viewBox="0 0 64 64" enable-background="new 0 0 64 64" xml:space="preserve">
<g>
	<g>
		<path fill="#0E0A32" d="M31.941,0c8.991,0,16.573,3.085,22.745,9.256C60.893,15.429,64,23.009,64,32
			c0,8.992-3.048,16.477-9.145,22.458C48.38,60.82,40.741,64,31.941,64c-8.687,0-16.189-3.162-22.512-9.484
			C3.144,48.229,0,40.725,0,32c0-8.762,3.144-16.343,9.429-22.743C15.6,3.086,23.104,0,31.941,0z M7.2,23.373
			C6.248,26,5.771,28.877,5.771,32.001c0,7.086,2.59,13.219,7.77,18.399c5.219,5.145,11.391,7.717,18.514,7.717
			c7.201,0,13.409-2.609,18.63-7.83c1.866-1.789,3.332-3.656,4.397-5.602l-12.056-5.371c-0.422,2.02-1.439,3.666-3.057,4.94
			c-1.623,1.275-3.535,2.013-5.744,2.199v4.916h-3.715v-4.916c-3.542-0.035-6.783-1.313-9.715-3.826l4.4-4.457
			c2.094,1.94,4.476,2.912,7.143,2.912c1.104,0,2.05-0.246,2.83-0.742c0.78-0.493,1.172-1.313,1.172-2.457
			c0-0.801-0.284-1.446-0.856-1.942L32.4,34.627l-3.771-1.715l-5.086-2.229L7.2,23.373z M32.057,5.714
			c-7.276,0-13.428,2.571-18.457,7.714c-1.258,1.258-2.439,2.687-3.543,4.287L22.286,23.2c0.533-1.676,1.542-3.019,3.029-4.028
			c1.484-1.009,3.218-1.571,5.201-1.686v-4.915h3.714v4.915c2.936,0.153,5.602,1.143,8,2.971l-4.172,4.286
			c-1.793-1.257-3.619-1.885-5.484-1.885c-0.991,0-1.878,0.191-2.656,0.571c-0.78,0.381-1.172,1.029-1.172,1.943
			c0,0.267,0.095,0.533,0.284,0.8l4.058,1.83l2.803,1.257l5.143,2.285l16.396,7.313c0.534-2.248,0.803-4.531,0.803-6.856
			c0-7.353-2.555-13.543-7.656-18.573C45.505,8.286,39.331,5.714,32.057,5.714z"/>
	</g>
</g>
</svg>
